<svg width="56" height="56" viewBox="0 0 56 56" fill="none" xmlns="http://www.w3.org/2000/svg">
<path d="M43.7442 20.378L44.3549 20.9887L44.837 21.7279L45.1584 22.3707L45.3834 23.11L45.4798 23.785L45.512 24.5885L45.512 31.2739L45.4798 31.6274L45.512 32.1095L45.4798 32.6559L45.4798 34.713L45.512 35.1951V35.3879L45.4477 35.4522L45.512 35.6451L45.4798 36.1915L45.512 36.3522L45.4477 36.4165L45.512 36.6093L45.4798 37.3486L45.4798 37.9271L45.512 38.3449L45.4798 38.8271L45.4798 41.0127L45.287 41.9769L45.0298 42.6197L44.6442 43.3268L44.4192 43.6161L43.6156 44.4196L43.0692 44.7732L42.4264 45.0946L41.655 45.3517L40.8836 45.4803H35.6125L35.3232 45.5124L34.8411 45.4803H28.22L27.7379 45.5124L27.32 45.4803L26.9022 45.5124H25.4237L25.1344 45.4803L24.6523 45.5124L23.7202 45.4803L22.9488 45.3517L22.1132 45.0303L21.4382 44.6768L20.9561 44.3232L20.3775 43.7447L19.8633 42.9733L19.5097 42.1697L19.349 41.6233L19.2526 41.0127L19.2205 40.2091L19.2205 26.0027L19.2526 25.7134L19.2205 25.617L19.2847 25.5527L19.2205 25.3599L19.2526 24.942L19.2205 24.6528L19.2526 24.1707L19.2526 23.7207L19.4133 22.9171L19.7026 22.1136L20.0883 21.4065L20.5382 20.828L21.1811 20.2494L21.856 19.8316L22.531 19.5423L23.1095 19.3495L23.8488 19.253L24.6523 19.2209L40.7872 19.2209L41.5265 19.3173L42.33 19.5423L42.9728 19.8637L43.7442 20.378ZM41.5586 22.885L41.1086 22.6279L40.6908 22.5315L39.9515 22.4993L39.0194 22.5315L38.0873 22.4993H25.5523L25.0702 22.5315L24.4273 22.5315L23.6238 22.6279L23.2702 22.7886L22.7881 23.2707L22.6274 23.6243L22.5631 24.2028L22.531 24.8135L22.4989 25.8741L22.4989 34.2951L22.531 34.7773L22.531 40.7555L22.7238 41.3341L22.7881 41.4626L23.3345 42.009L23.8488 42.1376L24.5238 42.1697L25.0059 42.2019L26.5486 42.2019L26.7094 42.234L26.7736 42.1697L26.8379 42.234H27.0308L27.0951 42.1697L27.2879 42.234L28.3807 42.234L28.445 42.1697L28.6378 42.234H29.9235L30.4056 42.2019H40.4979L41.2372 42.0412L41.5265 41.8805L41.88 41.5269L42.105 41.1091L42.2014 40.5627L42.2014 23.9778L42.0407 23.4957L41.7836 23.11L41.5586 22.885Z" fill="#FE9900"/>
<path d="M34.8127 11.3196L35.4556 11.9624L36.0341 12.8623L36.3234 13.5373L36.5162 14.3087L36.5805 15.0801L36.5805 18L36.5805 18.7554L33.27 18.7554L33.27 17.555L33.3021 17.0728L33.3021 15.7872L33.27 15.3051L33.1735 14.6944L33.045 14.373L32.8843 14.148L32.6271 13.8909L32.2736 13.6659L31.7272 13.5052L22.0848 13.5052L21.6027 13.473L20.1885 13.473L19.7064 13.5052L18.6457 13.473H17.4886L17.0065 13.5052L15.978 13.5052L15.4959 13.5373L14.853 13.6016L14.4352 13.7623L13.9852 14.2123L13.7281 14.7265L13.6638 15.1765L13.6638 17.1693L13.6317 17.5871L13.6317 26.5224L13.5995 27.0045L13.5995 29.6401L13.6317 30.1222V31.0864L13.696 31.7292L13.7924 32.2114L13.8567 32.3399L14.4031 32.8863L14.9816 33.0792L15.6244 33.1435L18.5 33.1113H18.7066V36.454H18.5H14.8852L14.0174 36.2933L13.4388 36.1004L12.6674 35.7148L12.0567 35.2969L11.4782 34.7184L11.0282 34.0756L10.6747 33.3363L10.4175 32.5649L10.3211 31.7614L10.3211 14.9194L10.4175 14.1801L10.7068 13.248L11.0604 12.5731L11.3175 12.1874L12.2817 11.2231L13.021 10.741L13.5995 10.4839L14.3066 10.291L15.0459 10.1946L25.1382 10.1946L25.4918 10.1625L25.5561 10.2268L25.6203 10.1625H25.9418L26.1346 10.2268L26.1989 10.1625L26.681 10.1946L27.0346 10.1625L27.5167 10.1946L27.8381 10.1946L28.5773 10.1625L28.6416 10.2268L28.7059 10.1625L29.188 10.1946L30.6665 10.1946L31.1486 10.1625L31.6629 10.1625L32.3057 10.2268L33.1414 10.4196L33.6556 10.6125L34.202 10.9017L34.8127 11.3196Z" fill="#454545"/>
<path d="M36.5626 26.6184L36.578 23.5L36.5798 27.2934L36.5798 31.8575L36.4512 32.6289L36.1941 33.4002L35.8406 34.0752L35.3906 34.718L34.9406 35.168L34.2014 35.7144L33.5264 36.068L32.5943 36.3572L31.7908 36.4537L26.9053 36.4537L22.9998 36.4538L22.9998 33.1116L26.9696 33.111L27.741 33.111L28.1588 33.1431L28.5124 33.111L28.9302 33.1431L29.2195 33.111L29.5087 33.1431L29.6052 33.111L29.6694 33.1753L29.8623 33.111H30.1837L30.248 33.1753L30.4408 33.111L31.7908 33.111L32.2729 32.9503L32.6264 32.7253L32.9157 32.436L33.205 31.8896L33.2693 31.0539L33.2315 23.0477L33.2371 26.7149L33.2315 26.6184L33.2315 23.0477L36.5802 23.0473L36.5626 26.6184Z" fill="#454545"/>
</svg>
