<svg width="40" height="40" viewBox="0 0 40 40" fill="none" xmlns="http://www.w3.org/2000/svg">
<path d="M37.4044 14.0372L38.015 14.6479L38.4972 15.3871L38.8186 16.0299L39.0436 16.7692L39.14 17.4441L39.1721 18.2477L39.1721 24.933L39.14 25.2866L39.1721 25.7687L39.14 26.3151L39.14 28.3722L39.1721 28.8543V29.0471L39.1078 29.1114L39.1721 29.3042L39.14 29.8506L39.1721 30.0114L39.1078 30.0756L39.1721 30.2685L39.14 31.0077L39.14 31.5863L39.1721 32.0041L39.14 32.4862L39.14 34.6718L38.9471 35.6361L38.69 36.2789L38.3043 36.986L38.0793 37.2753L37.2758 38.0788L36.7294 38.4324L36.0866 38.7538L35.3152 39.0109L34.5438 39.1395H29.2726L28.9834 39.1716L28.5012 39.1395H21.8802L21.398 39.1716L20.9802 39.1395L20.5624 39.1716H19.0839L18.7946 39.1395L18.3125 39.1716L17.3804 39.1395L16.609 39.0109L15.7733 38.6895L15.0984 38.3359L14.6162 37.9824L14.0377 37.4038L13.5234 36.6324L13.1699 35.8289L13.0092 35.2825L12.9128 34.6718L12.8806 33.8683L12.8806 19.6619L12.9128 19.3726L12.8806 19.2762L12.9449 19.2119L12.8806 19.0191L12.9127 18.6012L12.8806 18.312L12.9128 17.8298L12.9128 17.3799L13.0735 16.5763L13.3627 15.7728L13.7484 15.0657L14.1984 14.4871L14.8412 13.9086L15.5162 13.4908L16.1912 13.2015L16.7697 13.0087L17.5089 12.9122L18.3125 12.8801L34.4474 12.8801L35.1866 12.9765L35.9901 13.2015L36.633 13.5229L37.4044 14.0372ZM35.2188 16.5442L34.7688 16.2871L34.3509 16.1906L33.6117 16.1585L32.6796 16.1906L31.7475 16.1585H19.2124L18.7303 16.1906L18.0875 16.1906L17.284 16.2871L16.9304 16.4478L16.4483 16.9299L16.2876 17.2834L16.2233 17.862L16.1912 18.4727L16.159 19.5333L16.159 27.9543L16.1912 28.4364L16.1912 34.4147L16.384 34.9932L16.4483 35.1218L16.9947 35.6682L17.5089 35.7968L18.1839 35.8289L18.666 35.8611L20.2088 35.8611L20.3695 35.8932L20.4338 35.8289L20.4981 35.8932H20.6909L20.7552 35.8289L20.9481 35.8932L22.0409 35.8932L22.1051 35.8289L22.298 35.8932H23.5836L24.0658 35.8611H34.1581L34.8973 35.7004L35.1866 35.5396L35.5402 35.1861L35.7652 34.7683L35.8616 34.2219L35.8616 17.637L35.7009 17.1549L35.4437 16.7692L35.2188 16.5442Z" fill="#FE9900"/>
<path d="M25.3196 1.95238L25.9624 2.5952L26.5409 3.49516L26.8302 4.17012L27.0231 4.94151L27.0873 5.7129V11.3698L27.1195 11.7233L26.9588 11.8197H23.8732L23.7768 11.659V8.18778L23.8089 7.70566V6.42001L23.7768 5.93789L23.6804 5.32721L23.5518 5.0058L23.3911 4.78081L23.134 4.52368L22.7804 4.29869L22.234 4.13798H12.5916L12.1095 4.10584L10.6953 4.10584L10.2132 4.13798L9.15254 4.10584L7.99545 4.10584L7.51333 4.13798H6.48481L6.0027 4.17012L5.35987 4.23441L4.94204 4.39511L4.49206 4.84509L4.23493 5.35935L4.17065 5.80933L4.17065 7.80208L4.13851 8.21992V17.1552L4.10636 17.6373L4.10636 20.2729L4.13851 20.755L4.13851 21.7192L4.20279 22.3621L4.29921 22.8442L4.36349 22.9727L4.90989 23.5191L5.48844 23.712L6.13126 23.7763H11.081L11.3703 23.7441L11.4346 23.8084L11.6274 23.7441L11.8203 23.8084L11.8203 26.8297L11.8524 27.0547L11.6596 27.119L11.1774 27.0868H5.39201L4.5242 26.9261L3.94566 26.7333L3.17427 26.3476L2.56359 25.9297L1.98504 25.3512L1.53507 24.7084L1.18151 23.9691L0.924384 23.1977L0.82796 22.3942L0.82796 5.5522L0.924384 4.81295L1.21365 3.88085L1.56721 3.20589L1.82434 2.82019L2.78857 1.85596L3.52782 1.37384L4.10636 1.11671L4.81347 0.923862L5.55272 0.827438H15.6451L15.9986 0.795297L16.0629 0.859579L16.1272 0.795297H16.4486L16.6414 0.859579L16.7057 0.795297L17.1878 0.827438L17.5414 0.795297L18.0235 0.827438H18.3449L19.0842 0.795297L19.1485 0.859579L19.2127 0.795297L19.6949 0.827438H21.1734L21.6555 0.795297H22.1697L22.8126 0.859579L23.6482 1.05243L24.1625 1.24527L24.7089 1.53454L25.3196 1.95238Z" fill="#454545"/>
<path d="M26.9909 17.2517L27.1195 17.4445L27.0874 17.9266L27.0874 22.4907L26.9588 23.2621L26.7017 24.0335L26.3481 24.7084L25.8981 25.3513L25.4482 25.8012L24.7089 26.3476L24.0339 26.7012L23.1018 26.9905L22.2983 27.0869L17.4129 27.0869L17.2843 26.894L17.2843 23.8085L17.4771 23.7442L18.2485 23.7442L18.6664 23.7763L19.0199 23.7442L19.4377 23.7763L19.727 23.7442L20.0163 23.7763L20.1127 23.7442L20.177 23.8085L20.3698 23.7442L20.6913 23.7442L20.7555 23.8085L20.9484 23.7442L22.2983 23.7442L22.7804 23.5835L23.134 23.3585L23.4233 23.0692L23.7125 22.5228L23.7768 21.6872L23.7768 17.4445L23.7447 17.3481L23.9054 17.2517L24.3875 17.2838L26.7017 17.2838L26.9909 17.2517Z" fill="#454545"/>
</svg>
