<svg width="512" height="512" viewBox="0 0 512 512" fill="none" xmlns="http://www.w3.org/2000/svg">
<path opacity="0.967" fill-rule="evenodd" clip-rule="evenodd" d="M47.4997 107.5C60.8372 107.333 74.1705 107.5 87.4997 108C89.333 108.5 90.4997 109.667 90.9997 111.5C91.6664 114.167 91.6664 116.833 90.9997 119.5C90.4997 121.333 89.333 122.5 87.4997 123C74.1664 123.667 60.833 123.667 47.4997 123C44.4837 121.471 43.1503 118.971 43.4997 115.5C43.2821 111.934 44.6154 109.268 47.4997 107.5Z" fill="#FE9900"/>
<path opacity="0.986" fill-rule="evenodd" clip-rule="evenodd" d="M99.4997 107.5C133.502 107.333 167.502 107.5 201.5 108C204.516 109.529 205.849 112.029 205.5 115.5C205.849 118.971 204.516 121.471 201.5 123C167.5 123.667 133.5 123.667 99.4997 123C96.4837 121.471 95.1503 118.971 95.4997 115.5C95.2821 111.934 96.6154 109.268 99.4997 107.5Z" fill="#FE9900"/>
<path opacity="0.955" fill-rule="evenodd" clip-rule="evenodd" d="M67.4997 163.5C137.834 163.333 208.167 163.5 278.5 164C303.469 165.655 326.135 173.655 346.5 188C356.124 195.289 365.458 202.955 374.5 211C395.104 213.151 415.104 217.818 434.5 225C477.256 242.538 491.09 273.371 476 317.5C473.079 321.092 469.579 323.925 465.5 326C455.555 327.092 445.555 327.925 435.5 328.5C426.985 357.501 407.651 370.334 377.5 367C357.296 361.629 344.63 348.796 339.5 328.5C291.5 327.167 243.5 327.167 195.5 328.5C185.297 360.838 163.63 373.005 130.5 365C113.866 358.198 103.533 346.032 99.4997 328.5C85.5116 327.667 71.5116 327.167 57.4997 327C54.4837 325.471 53.1503 322.971 53.4997 319.5C53.1503 316.029 54.4837 313.529 57.4997 312C71.5116 311.833 85.5116 311.333 99.4997 310.5C108.015 281.499 127.349 268.666 157.5 272C177.704 277.371 190.37 290.204 195.5 310.5C243.5 311.833 291.5 311.833 339.5 310.5C348.015 281.499 367.349 268.666 397.5 272C417.704 277.371 430.37 290.204 435.5 310.5C442.142 311.664 448.808 311.831 455.5 311C458.494 310.594 460.661 309.094 462 306.5C470.4 280.677 463.233 260.843 440.5 247C417.097 235.784 392.43 229.117 366.5 227C354.866 216.853 342.866 207.187 330.5 198C307.642 184.892 282.975 178.892 256.5 180C193.5 179.667 130.5 179.333 67.4997 179C64.4837 177.471 63.1503 174.971 63.4997 171.5C63.2821 167.934 64.6154 165.268 67.4997 163.5ZM140.5 288.5C169.274 288.106 181.441 302.106 177 330.5C168.619 347.604 155.119 353.771 136.5 349C116.665 338.519 111.498 323.019 121 302.5C126.012 295.639 132.512 290.972 140.5 288.5ZM380.5 288.5C409.274 288.106 421.441 302.106 417 330.5C408.619 347.604 395.119 353.771 376.5 349C356.665 338.519 351.498 323.019 361 302.5C366.012 295.639 372.512 290.972 380.5 288.5Z" fill="#FE9900"/>
<path opacity="0.985" fill-rule="evenodd" clip-rule="evenodd" d="M29.4997 203.5C62.1681 203.333 94.8347 203.5 127.5 204C130.516 205.529 131.849 208.029 131.5 211.5C131.849 214.971 130.516 217.471 127.5 219C94.833 219.667 62.1664 219.667 29.4997 219C26.4837 217.471 25.1503 214.971 25.4997 211.5C25.2821 207.934 26.6154 205.268 29.4997 203.5Z" fill="#FE9900"/>
<path opacity="0.98" fill-rule="evenodd" clip-rule="evenodd" d="M339.5 219.5C349.33 217.829 353.163 221.829 351 231.5C345.443 238.373 338.276 242.873 329.5 245C282.833 245.667 236.167 245.667 189.5 245C187.667 244.5 186.5 243.333 186 241.5C185.333 238.833 185.333 236.167 186 233.5C186.5 231.667 187.667 230.5 189.5 230C233.167 229.667 276.833 229.333 320.5 229C328.249 228.459 334.583 225.292 339.5 219.5Z" fill="#FE9900"/>
<path opacity="0.969" fill-rule="evenodd" clip-rule="evenodd" d="M205.5 397.5C219.504 397.333 233.504 397.5 247.5 398C249.333 398.5 250.5 399.667 251 401.5C251.667 404.167 251.667 406.833 251 409.5C250.5 411.333 249.333 412.5 247.5 413C233.5 413.667 219.5 413.667 205.5 413C202.484 411.471 201.151 408.971 201.5 405.5C201.282 401.934 202.616 399.268 205.5 397.5Z" fill="#FE9900"/>
<path opacity="0.985" fill-rule="evenodd" clip-rule="evenodd" d="M261.5 397.5C294.168 397.333 326.835 397.5 359.5 398C362.516 399.529 363.849 402.029 363.5 405.5C363.849 408.971 362.516 411.471 359.5 413C326.833 413.667 294.167 413.667 261.5 413C258.484 411.471 257.151 408.971 257.5 405.5C257.282 401.934 258.616 399.268 261.5 397.5Z" fill="#FE9900"/>
</svg>
