<svg width="512" height="512" viewBox="0 0 512 512" fill="none" xmlns="http://www.w3.org/2000/svg">
<g clip-path="url(#clip0_197_243)">
<path opacity="0.931" fill-rule="evenodd" clip-rule="evenodd" d="M243.5 -0.5C251.5 -0.5 259.5 -0.5 267.5 -0.5C304.754 8.94431 324.92 32.9443 328 71.5C355.288 92.3909 370.955 120.058 375 154.5C375.333 167.167 375.667 179.833 376 192.5C384.839 203.397 385.839 215.064 379 227.5C372.025 236.439 362.859 240.439 351.5 239.5C347.707 272.113 332.041 297.113 304.5 314.5C303.334 325.485 303.168 336.485 304 347.5C305.29 351.24 307.457 354.407 310.5 357C336.717 368.609 363.05 379.942 389.5 391C403.469 398.431 411.969 409.931 415 425.5C415.667 452.833 415.667 480.167 415 507.5C414.31 509.35 413.144 510.684 411.5 511.5C408.833 511.5 406.167 511.5 403.5 511.5C402.164 509.99 400.997 508.323 400 506.5C399.667 480.167 399.333 453.833 399 427.5C396.749 418.828 391.916 411.995 384.5 407C368.316 399.829 352.149 392.663 336 385.5C335.333 406.5 335.333 427.5 336 448.5C356.715 456.936 363.715 471.936 357 493.5C352.086 502.252 344.919 508.252 335.5 511.5C330.167 511.5 324.833 511.5 319.5 511.5C300.545 504.266 293.045 490.599 297 470.5C300.85 459.48 308.35 452.48 319.5 449.5C319.833 430.155 319.5 410.822 318.5 391.5C301.697 402.471 285.03 413.637 268.5 425C259.833 429.667 251.167 429.667 242.5 425C225.97 413.637 209.303 402.471 192.5 391.5C191.501 404.817 191.167 418.15 191.5 431.5C200.173 431.334 208.84 431.5 217.5 432C227.492 432.992 234.325 438.159 238 447.5C239.6 462.445 239.934 477.445 239 492.5C236.822 501.837 231.322 508.17 222.5 511.5C218.833 511.5 215.167 511.5 211.5 511.5C207.296 507.939 206.463 503.605 209 498.5C212.778 496.927 216.611 495.427 220.5 494C221.701 493.097 222.535 491.931 223 490.5C223.667 478.167 223.667 465.833 223 453.5C221.74 450.572 219.573 448.739 216.5 448C194.5 447.333 172.5 447.333 150.5 448C147.804 448.69 145.637 450.19 144 452.5C143.333 465.5 143.333 478.5 144 491.5C147.018 494.892 150.851 496.725 155.5 497C160.768 501.829 160.768 506.663 155.5 511.5C151.833 511.5 148.167 511.5 144.5 511.5C136.519 508.351 131.019 502.684 128 494.5C127.046 478.433 127.379 462.433 129 446.5C132.223 440.277 137.057 435.777 143.5 433C154.111 431.625 164.778 431.125 175.5 431.5C175.667 416.163 175.5 400.83 175 385.5C158.907 392.795 142.741 399.962 126.5 407C119.084 411.995 114.251 418.828 112 427.5C111.667 453.833 111.333 480.167 111 506.5C110.003 508.323 108.836 509.99 107.5 511.5C104.833 511.5 102.167 511.5 99.5 511.5C97.8564 510.684 96.6897 509.35 96 507.5C95.3333 480.167 95.3333 452.833 96 425.5C98.4325 412.135 105.266 401.635 116.5 394C144.417 381.472 172.417 369.139 200.5 357C204.325 354.512 206.492 351.012 207 346.5C207.832 335.818 207.666 325.151 206.5 314.5C178.96 297.116 163.294 272.116 159.5 239.5C136.822 238.661 126.322 226.994 128 204.5C130.945 193.221 138.112 186.388 149.5 184C156.939 183.93 164.272 183.263 171.5 182C173.049 180.786 174.215 179.286 175 177.5C174.762 169.757 177.929 163.923 184.5 160C231.851 153.665 275.518 137.665 315.5 112C325.569 110.732 329.069 114.898 326 124.5C322.254 127.29 318.421 129.957 314.5 132.5C330.558 143.952 338.058 159.619 337 179.5C338.214 181.049 339.714 182.215 341.5 183C347.491 183.499 353.491 183.666 359.5 183.5C363.339 137.348 346.005 101.848 307.5 77C277.749 61.3423 247.082 59.3423 215.5 71C176.072 89.644 154.238 120.811 150 164.5C145.667 168.5 141.333 168.5 137 164.5C136.791 129.739 149.624 100.572 175.5 77C178 75.1667 180.5 73.3333 183 71.5C186.08 32.9443 206.246 8.94431 243.5 -0.5ZM245.5 15.5C279.609 12.9356 301.109 27.9356 310 60.5C282.737 46.8913 254.237 43.7246 224.5 51C216.261 53.1902 208.427 56.3569 201 60.5C206.595 36.4046 221.428 21.4046 245.5 15.5ZM292.5 143.5C306.48 143.978 315.313 150.978 319 164.5C318.14 191.631 331.307 203.464 358.5 200C366.919 203.335 369.419 209.168 366 217.5C364.5 219 363 220.5 361.5 222C354.579 223.219 347.579 223.886 340.5 224C339.069 224.465 337.903 225.299 337 226.5C335.402 266.235 316.236 293.402 279.5 308C235.505 317.914 203.005 303.08 182 263.5C177.51 251.557 174.843 239.224 174 226.5C173.097 225.299 171.931 224.465 170.5 224C164.833 223.667 159.167 223.333 153.5 223C142.697 218.738 140.697 211.904 147.5 202.5C148.7 201.469 150.034 200.635 151.5 200C158.167 199.667 164.833 199.333 171.5 199C184.217 195.782 190.884 187.615 191.5 174.5C227.077 169.971 260.744 159.638 292.5 143.5ZM223.5 322.5C244.5 329.136 265.5 329.136 286.5 322.5C287.332 331.482 287.832 340.482 288 349.5C291.295 362.796 299.462 371.63 312.5 376C295.167 387.667 277.833 399.333 260.5 411C257.167 413 253.833 413 250.5 411C233.167 399.333 215.833 387.667 198.5 376C211.566 371.604 219.732 362.771 223 349.5C223.5 340.506 223.666 331.506 223.5 322.5ZM326.5 463.5C339.173 464.839 344.673 471.839 343 484.5C337.748 495.474 329.582 498.307 318.5 493C308.968 483.695 309.301 474.695 319.5 466C322.004 465.302 324.337 464.469 326.5 463.5Z" fill="#FE9900"/>
<path opacity="0.881" fill-rule="evenodd" clip-rule="evenodd" d="M212.5 199.5C217.28 198.641 220.78 200.308 223 204.5C223.667 209.167 223.667 213.833 223 218.5C220.774 222.861 217.274 224.361 212.5 223C210.333 222.167 208.833 220.667 208 218.5C207.333 213.833 207.333 209.167 208 204.5C209.025 202.313 210.525 200.646 212.5 199.5Z" fill="#FE9900"/>
<path opacity="0.881" fill-rule="evenodd" clip-rule="evenodd" d="M292.5 199.5C297.28 198.641 300.78 200.308 303 204.5C303.667 209.167 303.667 213.833 303 218.5C300.774 222.861 297.274 224.361 292.5 223C290.333 222.167 288.833 220.667 288 218.5C287.333 213.833 287.333 209.167 288 204.5C289.025 202.313 290.525 200.646 292.5 199.5Z" fill="#FE9900"/>
<path opacity="0.938" fill-rule="evenodd" clip-rule="evenodd" d="M-0.5 451.5C-0.5 427.833 -0.5 404.167 -0.5 380.5C1.78001 374.374 5.78001 369.541 11.5 366C23.3499 361.828 35.1833 357.661 47 353.5C47.6667 346.833 47.6667 340.167 47 333.5C27.4104 318.088 19.5771 297.921 23.5 273C23.6667 264.5 23.8333 256 24 247.5C27.3167 236.848 34.15 229.348 44.5 225C66.1241 223.39 87.7907 223.056 109.5 224C124.2 227.369 132.7 236.535 135 251.5C135.885 267.536 135.552 283.536 134 299.5C130.679 313.488 123.345 324.821 112 333.5C111.5 340.492 111.334 347.492 111.5 354.5C116.908 355.244 121.742 357.244 126 360.5C128.678 367.475 126.345 371.808 119 373.5C116.165 372.58 113.332 371.58 110.5 370.5C102.009 376.912 93.3425 383.079 84.5 389C76.4245 390.641 69.5912 388.474 64 382.5C63.5003 390.827 63.3336 399.16 63.5 407.5C81.4101 405.91 89.4101 414.077 87.5 432C89.8799 445.122 84.7132 452.955 72 455.5C64.7408 455.344 62.0741 451.677 64 444.5C65.1414 441.528 67.3081 439.861 70.5 439.5C71.4948 434.208 71.8282 428.875 71.5 423.5C60.8333 423.5 50.1667 423.5 39.5 423.5C39.334 428.844 39.5006 434.177 40 439.5C46.4376 441.82 48.4376 446.153 46 452.5C36.3043 457.999 28.971 455.666 24 445.5C23.3333 436.5 23.3333 427.5 24 418.5C28.9632 409.107 36.7965 405.44 47.5 407.5C47.6665 395.162 47.4999 382.829 47 370.5C37.4397 373.798 27.9397 377.298 18.5 381C16.2324 382.558 15.0657 384.724 15 387.5C14.6667 408.833 14.3333 430.167 14 451.5C12.6071 454.366 10.2738 455.699 7 455.5C3.63354 455.57 1.13354 454.237 -0.5 451.5ZM51.5 239.5C70.1696 239.333 88.8363 239.5 107.5 240C117.089 244.336 121.089 251.836 119.5 262.5C119.167 265.5 118.833 268.5 118.5 271.5C100.373 268.85 84.0394 262.016 69.5 251C63.5068 248.72 57.8402 249.387 52.5 253C48.6028 256.531 44.4361 259.697 40 262.5C37.5091 251.481 41.3424 243.814 51.5 239.5ZM61.5 266.5C69.9449 271.224 78.6115 275.724 87.5 280C97.8109 284.078 108.478 286.578 119.5 287.5C117.078 312.088 103.578 325.422 79 327.5C61.616 326.641 49.2827 318.308 42 302.5C39.7364 296.338 39.0697 290.004 40 283.5C47.1451 277.693 54.3118 272.027 61.5 266.5ZM63.5 341.5C74.1536 344.129 84.8203 344.129 95.5 341.5C95.1903 347.758 95.5236 353.924 96.5 360C90.7569 364.621 84.9236 369.121 79 373.5C73.6667 369.5 68.3333 365.5 63 361.5C63.2109 354.862 63.3776 348.196 63.5 341.5Z" fill="#FE9900"/>
<path opacity="0.938" fill-rule="evenodd" clip-rule="evenodd" d="M511.5 380.5C511.5 404.167 511.5 427.833 511.5 451.5C507.982 455.7 503.649 456.533 498.5 454C497.874 453.25 497.374 452.416 497 451.5C496.958 428.783 496.291 406.117 495 383.5C493.269 381.383 491.102 379.883 488.5 379C483.129 377.265 477.796 375.432 472.5 373.5C471.501 385.482 471.168 397.482 471.5 409.5C478.63 411.166 483.463 415.5 486 422.5C490.617 438.098 485.45 448.931 470.5 455C452.705 457.278 442.371 449.611 439.5 432C440.346 421.666 445.346 414.166 454.5 409.5C455.666 398.515 455.832 387.515 455 376.5C449.833 380.333 444.667 384.167 439.5 388C435.259 389.457 430.926 389.791 426.5 389C417.657 383.079 408.991 376.912 400.5 370.5C394.841 374.493 389.674 374.16 385 369.5C382.633 365.001 383.467 361.168 387.5 358C391.43 356.523 395.43 355.356 399.5 354.5C399.666 347.492 399.5 340.492 399 333.5C387.655 324.821 380.321 313.488 377 299.5C375.472 285.871 375.138 272.204 376 258.5C378.658 241.509 388.158 230.342 404.5 225C422.833 223 441.167 223 459.5 225C474.207 229.706 483.374 239.539 487 254.5C487.667 269.167 487.667 283.833 487 298.5C484.082 313.349 476.415 325.016 464 333.5C463.333 340.167 463.333 346.833 464 353.5C475.817 357.661 487.65 361.828 499.5 366C505.22 369.541 509.22 374.374 511.5 380.5ZM410.5 239.5C425.891 239.065 441.225 239.565 456.5 241C463 243.5 467.5 248 470 254.5C471.113 261.759 471.613 269.092 471.5 276.5C474.529 306.282 461.362 323.282 432 327.5C409.333 325.838 396 313.838 392 291.5C391.333 281.167 391.333 270.833 392 260.5C394.141 249.864 400.308 242.864 410.5 239.5ZM415.5 341.5C425.847 344.09 436.18 344.09 446.5 341.5C447.052 347.792 448.052 353.959 449.5 360C443.667 364.5 437.833 369 432 373.5C426.076 369.121 420.243 364.621 414.5 360C415.476 353.924 415.81 347.758 415.5 341.5ZM462.5 423.5C469.994 424.145 472.827 428.145 471 435.5C464.249 441.628 459.083 440.462 455.5 432C456.329 430.184 457.163 428.351 458 426.5C459.652 425.601 461.152 424.601 462.5 423.5Z" fill="#FE9900"/>
<path opacity="0.912" fill-rule="evenodd" clip-rule="evenodd" d="M228.5 247.499C230.527 247.337 232.527 247.504 234.5 247.999C243.778 255.233 254.111 257.233 265.5 253.999C270.067 251.548 274.734 249.381 279.5 247.499C286.963 249.09 289.129 253.424 286 260.499C270.978 272.02 254.478 274.52 236.5 267.999C232.127 266.286 228.293 263.786 225 260.499C222.348 255.038 223.514 250.705 228.5 247.499Z" fill="#FE9900"/>
</g>
<defs>
<clipPath id="clip0_197_243">
<rect width="512" height="512" fill="white"/>
</clipPath>
</defs>
</svg>
