<svg width="512" height="512" viewBox="0 0 512 512" fill="none" xmlns="http://www.w3.org/2000/svg">
<g clip-path="url(#clip0_197_234)">
<path opacity="0.942" fill-rule="evenodd" clip-rule="evenodd" d="M139.5 -0.5C198.5 -0.5 257.5 -0.5 316.5 -0.5C320.925 0.817868 325.259 2.6512 329.5 5C353.273 20.4417 376.773 36.275 400 52.5C402.694 59.4421 400.361 63.7754 393 65.5C384.512 61.2573 376.512 56.2573 369 50.5C358.833 60.6667 348.667 70.8333 338.5 81C353.167 94.3333 367.833 107.667 382.5 121C415.47 121.732 441.637 135.232 461 161.5C461.667 144.167 461.667 126.833 461 109.5C445.783 101.81 431.283 92.9764 417.5 83C413.074 77.5586 413.741 72.8919 419.5 69C421.5 68.3333 423.5 68.3333 425.5 69C435.338 75.0846 445.004 81.418 454.5 88C471.169 97.5368 489.169 101.87 508.5 101C509.373 102.045 510.373 102.878 511.5 103.5C511.5 106.5 511.5 109.5 511.5 112.5C510.373 113.122 509.373 113.955 508.5 115C498.14 115.733 487.806 115.567 477.5 114.5C477.5 140.833 477.5 167.167 477.5 193.5C487.506 193.334 497.506 193.5 507.5 194C509.35 194.69 510.684 195.856 511.5 197.5C511.5 200.167 511.5 202.833 511.5 205.5C509.887 207.27 507.887 208.436 505.5 209C494.785 209.125 484.118 209.792 473.5 211C464.577 214.53 455.577 217.863 446.5 221C416.026 228.215 388.693 221.882 364.5 202C345.805 183.638 327.471 164.972 309.5 146C279.793 145.96 250.127 145.293 220.5 144C208.189 140.214 199.855 132.381 195.5 120.5C179.279 122.632 165.779 117.632 155 105.5C152.012 101.192 149.845 96.5249 148.5 91.5C121.884 90.3836 107.55 76.5502 105.5 50C105.96 36.3741 112.96 29.2075 126.5 28.5C123.039 15.1028 127.372 5.43609 139.5 -0.5ZM146.5 14.5C160.167 14.5 173.833 14.5 187.5 14.5C187.5 24.8333 187.5 35.1667 187.5 45.5C179.493 45.6664 171.493 45.4997 163.5 45C150.034 41.2074 142.868 32.3741 142 18.5C142.907 16.3909 144.407 15.0576 146.5 14.5ZM203.5 14.5C218.5 14.5 233.5 14.5 248.5 14.5C248.5 24.8333 248.5 35.1667 248.5 45.5C233.5 45.5 218.5 45.5 203.5 45.5C203.5 35.1667 203.5 24.8333 203.5 14.5ZM264.5 14.5C281.205 14.1093 297.872 14.6093 314.5 16C328.235 23.9079 341.568 32.4079 354.5 41.5C345.5 51.1667 336.167 60.5 326.5 69.5C320.31 64.2331 314.31 58.7331 308.5 53C304.153 49.3274 299.153 46.9941 293.5 46C283.839 45.5002 274.172 45.3335 264.5 45.5C264.5 35.1667 264.5 24.8333 264.5 14.5ZM124.5 44.5C127.85 44.335 131.183 44.5017 134.5 45C143.995 56.5651 156.328 62.0651 171.5 61.5C171.5 66.1667 171.5 70.8333 171.5 75.5C161.828 75.6665 152.161 75.4998 142.5 75C129.25 72.2463 122.25 64.0796 121.5 50.5C121.754 48.0389 122.754 46.0389 124.5 44.5ZM187.5 61.5C200.5 61.5 213.5 61.5 226.5 61.5C226.5 66.1667 226.5 70.8333 226.5 75.5C213.5 75.5 200.5 75.5 187.5 75.5C187.5 70.8333 187.5 66.1667 187.5 61.5ZM242.5 61.5C248.176 61.3339 253.843 61.5006 259.5 62C256.663 66.0143 255.33 70.5143 255.5 75.5C251.167 75.5 246.833 75.5 242.5 75.5C242.5 70.8333 242.5 66.1667 242.5 61.5ZM283.5 61.5C288.548 61.127 293.215 62.2936 297.5 65C303.209 70.5088 308.876 76.0088 314.5 81.5C307.167 89.5 299.5 97.1667 291.5 104.5C285.515 99.0149 279.681 93.3482 274 87.5C268.413 75.6679 271.58 67.0013 283.5 61.5ZM165.5 92.5C179.323 91.5042 193.323 91.1709 207.5 91.5C207.5 95.8333 207.5 100.167 207.5 104.5C198.827 104.666 190.16 104.5 181.5 104C174.586 102.237 169.253 98.4038 165.5 92.5ZM223.5 91.5C235.186 91.1678 246.852 91.5011 258.5 92.5C260.546 97.0497 263.546 100.883 267.5 104C252.837 104.5 238.17 104.667 223.5 104.5C223.5 100.167 223.5 95.8333 223.5 91.5ZM326.5 92.5C338.512 102.524 350.179 113.024 361.5 124C349.228 127.637 337.894 133.137 327.5 140.5C319.167 132.833 311.167 124.833 303.5 116.5C311.188 108.479 318.855 100.479 326.5 92.5ZM214.5 120.5C225.5 120.5 236.5 120.5 247.5 120.5C247.5 123.5 247.5 126.5 247.5 129.5C238.653 130.126 229.986 129.293 221.5 127C218.622 125.284 216.288 123.117 214.5 120.5ZM263.5 120.5C270.508 120.334 277.508 120.5 284.5 121C287.167 123.667 289.833 126.333 292.5 129C282.839 129.5 273.172 129.666 263.5 129.5C263.5 126.5 263.5 123.5 263.5 120.5ZM377.5 137.5C419.88 137.673 447.547 157.84 460.5 198C433.011 212.574 406.344 211.241 380.5 194C365.984 180.984 352.317 167.151 339.5 152.5C350.881 144.139 363.548 139.139 377.5 137.5Z" fill="#FE9900"/>
<path opacity="0.93" fill-rule="evenodd" clip-rule="evenodd" d="M248.5 159.5C293.57 159.11 325.07 179.443 343 220.5C350.303 241.531 350.303 262.531 343 283.5C339.547 286.769 335.714 287.269 331.5 285C329.556 283.278 328.556 281.111 328.5 278.5C332.783 264.309 333.45 249.976 330.5 235.5C313.163 235.667 295.83 235.5 278.5 235C261.822 229.492 254.989 217.992 258 200.5C260.91 189.257 268.077 182.424 279.5 180C239.351 169.661 208.518 182.161 187 217.5C186.517 218.448 186.351 219.448 186.5 220.5C194.174 220.334 201.841 220.5 209.5 221C222.281 224.119 228.781 232.286 229 245.5C229.465 246.931 230.299 248.097 231.5 249C237.39 250.245 243.39 250.912 249.5 251C268.134 256.761 275.634 269.261 272 288.5C268.202 299.965 260.369 306.798 248.5 309C233.833 309.333 219.167 309.667 204.5 310C232.458 332.502 262.458 335.502 294.5 319C301.712 314.794 308.045 309.461 313.5 303C320.624 299.155 325.29 301.155 327.5 309C327.375 310.627 326.875 312.127 326 313.5C294.545 345.901 257.711 353.734 215.5 337C170.985 311.454 154.819 273.621 167 223.5C181.457 185.866 208.623 164.533 248.5 159.5ZM281.5 195.5C290.173 195.334 298.84 195.5 307.5 196C314.503 202.514 320.17 210.014 324.5 218.5C310.178 219.666 295.845 219.833 281.5 219C273.19 214.451 271.357 207.951 276 199.5C278.015 198.303 279.849 196.97 281.5 195.5ZM180.5 236.5C190.273 236.052 199.939 236.552 209.5 238C210.701 238.903 211.535 240.069 212 241.5C212.259 254.206 218.426 262.372 230.5 266C236.167 266.333 241.833 266.667 247.5 267C258.91 273.378 260.243 281.378 251.5 291C249.913 291.862 248.246 292.529 246.5 293C227.833 293.667 209.167 293.667 190.5 293C179.506 275.547 176.173 256.714 180.5 236.5Z" fill="#FE9900"/>
<path opacity="0.937" fill-rule="evenodd" clip-rule="evenodd" d="M385.5 511.501C324.5 511.501 263.5 511.501 202.5 511.501C197.367 509.942 192.367 507.775 187.5 505.001C143.338 475.419 99.0049 446.086 54.5 417.001C38.4001 409.261 21.4001 405.928 3.5 407.001C1.97331 405.969 0.639972 404.802 -0.5 403.501C-0.5 400.834 -0.5 398.168 -0.5 395.501C1.01027 394.165 2.67694 392.998 4.5 392.001C27.9167 389.616 49.5834 394.616 69.5 407.001C114.021 437.093 159.021 466.427 204.5 495.001C234.638 496.14 264.804 496.64 295 496.501C322.833 496.334 350.667 496.168 378.5 496.001C381.486 495.682 383.153 494.015 383.5 491.001C381.263 475.765 372.596 466.765 357.5 464.001C347.167 463.668 336.833 463.334 326.5 463.001C324.667 462.501 323.5 461.334 323 459.501C320.757 453.009 322.924 449.176 329.5 448.001C341.535 447.193 353.535 447.526 365.5 449.001C375.599 451.552 383.933 456.885 390.5 465.001C394.167 465.668 397.833 465.668 401.5 465.001C405.589 452.937 402.255 443.27 391.5 436.001C389.5 435.334 387.5 434.668 385.5 434.001C345.501 433.501 305.501 433.334 265.5 433.501C265.172 438.142 263.838 442.476 261.5 446.501C274.208 447.08 286.875 447.913 299.5 449.001C304.833 453.668 304.833 458.334 299.5 463.001C273.118 463.965 246.784 463.631 220.5 462.001C217.339 460.588 214.339 458.921 211.5 457.001C185 432.501 158.5 408.001 132 383.501C129.144 378.081 130.311 373.914 135.5 371.001C138.303 370.246 140.97 370.579 143.5 372.001C170.2 397.036 197.2 421.703 224.5 446.001C238.626 450.026 246.959 444.859 249.5 430.501C249.421 426.763 248.254 423.429 246 420.501C210.861 384.362 175.361 348.529 139.5 313.001C123.884 301.24 106.218 295.24 86.5 295.001C80.579 288.606 81.579 283.606 89.5 280.001C112.462 279.488 132.795 286.488 150.5 301.001C170.167 320.668 189.833 340.334 209.5 360.001C239.53 360.057 269.53 360.724 299.5 362.001C312.373 365.714 321.706 373.548 327.5 385.501C351.582 384.021 367.915 394.354 376.5 416.501C394.362 416.341 407.529 424.008 416 439.501C419.73 449.644 420.397 459.978 418 470.501C413.65 477.927 407.15 481.594 398.5 481.501C401.74 495.004 397.406 505.004 385.5 511.501ZM226.5 377.501C247.996 376.338 269.663 376.172 291.5 377.001C298.258 377.713 303.924 380.546 308.5 385.501C283.84 386.667 259.173 386.834 234.5 386.001C231.601 383.272 228.934 380.439 226.5 377.501ZM251.5 403.501C281.331 402.337 311.331 402.17 341.5 403.001C349.395 405.276 355.395 409.943 359.5 417.001C327.162 417.834 294.828 417.668 262.5 416.501C259.907 411.243 256.241 406.91 251.5 403.501Z" fill="#FE9900"/>
<path opacity="0.915" fill-rule="evenodd" clip-rule="evenodd" d="M-0.5 312.5C-0.5 309.833 -0.5 307.167 -0.5 304.5C0.316435 302.856 1.64977 301.69 3.5 301C13.2812 300.977 22.9479 299.977 32.5 298C40.4926 294.087 48.6592 290.587 57 287.5C63.4422 289.046 65.7755 293.046 64 299.5C46.4155 312.856 26.5821 318.356 4.5 316C2.67694 315.003 1.01027 313.836 -0.5 312.5Z" fill="#FE9900"/>
</g>
<defs>
<clipPath id="clip0_197_234">
<rect width="512" height="512" fill="white"/>
</clipPath>
</defs>
</svg>
