<svg width="512" height="512" viewBox="0 0 512 512" fill="none" xmlns="http://www.w3.org/2000/svg">
<path d="M246.5 213H249.75L251.75 214.25L252.75 215.5L253.5 217.75V229.5L252.75 233.75L251.5 237.5L249 242.25L246.5 245.5L243.5 248.5L240 251L236.25 253L226.5 256.75L219.25 259.5L211.25 262.5L208.75 263.25L208.25 264.5L204.75 270.75L201.25 276.75L198.25 282L196.75 284.5L199.5 283.75L212.75 279.75L224.5 276.25L227 275.75L229 276L231.5 277.5L235.25 281L240.25 285.5L243.5 288.5L245.5 290.25L248.75 293.25L251.25 295.5L254.5 298.5L256.5 300.25L262.5 305.75L267.5 310.25L269.5 312L271.5 314L272.5 316V318.25L271.5 320.5L269.5 322.25L263.5 326.25L259.5 328.5L255 330.5L250.25 332L247 332.75L245 333H240.5L236.75 332.25L234.5 331.25L232 329.75L228.75 327.25L225.25 324.75L220.75 321.5L216.75 318.5L215 318.75L185.75 331L182 339.75L179.25 346L176.75 351.75L176.25 353L177.5 353.5L181 355.5L182 355.25L189.25 352L196.75 348.75L201.75 347.25L206.25 346.75H208.75L213.75 347.5L217 348.5L221 350.25L224 352.25L226.5 354.5L227.75 355.75L229.75 358L231.5 360.75L233.5 364.5L234.25 366.75V368.75L233 371.25L230.75 372.75L197.25 386.25L189.75 389.25L183 392L178.5 393.75L177.25 394H175.5L172.25 392.75L166.75 390.25L163.5 389L156.25 391.75L144.75 396L137.5 398.75L131.5 401L129.5 405L127 409L124.75 411.75L123.75 413L121.75 414.75L119.5 416.75L115.25 419.5L113.75 423.75L108.25 440.25L104.75 451L101.75 460L98 471.5L96.75 473.75L95 475.25L93.5 475.75H91.5L89 474.5L87.5 472.25L87.25 471.5V469.25L91.75 455.5L95 445.5L102.25 423.75L100.5 424H94.5L89.75 423.25L83.75 421.25L79.5 419L76 416.5L73.5 414.25L70.75 411.5L68 407.75L65.75 403.75L64 399.25L63.5 397L62.25 397.5L58.75 401L56.75 402.75L54.5 405H54V405.5L52 407.25L50.25 409L47.5 411L46.5 411.5H44L42.25 410.75L41 409.75L40 408L39.75 405.75L40.5 403.5L42.75 401L45.25 398.75L49 395.25L51.25 393L53.25 391.25L55 389.5H55.5V389L57.5 387.25L61.25 383.75L62.75 382.5L64.5 376.25L66.25 372.5L68.25 369L70.5 365.75H71L71.5 364.75L75.25 361L78.75 358.5L82.25 356.5L84.75 355.25L85 354.25L83.5 344V337.5L84.5 333L86.25 329L88 326.25L90.25 323.5L93.75 319.75L96.25 317.25L96.5 316.75H97L97.5 315.75H98L98.5 314.75L102 311.25L102.25 310.75H102.75L103.25 309.75L105.75 307.25L107.5 305.25L110.25 302.5L112 300.5L115.25 297.25L115.5 296.75H116L116.5 295.75L120.75 291.5L122.5 289.5L124 287.75L131.5 280.25L135 278L137.5 276.75L141.25 275.75L143 275.5L152 275.25L154 272.75L157.25 268.25L159.5 265.25L162.75 260.75L165.75 256.75L169.25 252L172.5 247.5L175.5 243.5L178.75 239L182.25 234.25L185.5 229.75L187.5 227.25L189.5 226L196.5 224.25L245 213.25L246.5 213ZM241.5 225L202.75 233.75L195.25 235.5L194 236.25L191 240.25L189 243L178.5 257.25L176.25 260.25L174.25 263L170.75 267.75L167.5 272.25L164.25 276.5L161.75 280L162 281.5L165 287L168.5 293L172 299.25L173.5 301.75H174.5L177.75 296L181.25 290L185 283.5L188.5 277.5L191.5 272.25L195.25 265.75L198 261L201.25 255.5L203 254.25L213.5 250.25L224.25 246.25L232 243.25L235.5 241.25L238.5 238.5L240.25 236L241.75 233L242.75 229L243 225H241.5ZM145 286L142.25 286.5L140 287.5L138.5 288.5L136 290.75L133 294L131 296V296.5H130.5L128.75 298.5L126.75 300.5V301H126.25L124.5 303L121 306.5L119.25 308.5L116.25 311.5V312H115.75L114 314L111 317L109.25 319L106.75 321.5V322H106.25L104.5 324L102 326.5V327L101 327.5L99.25 329.5L97.75 331V331.5H97.25L95 335.25L94.25 338L94 341.5L95.25 351.5L95.5 352.75L96.5 353H100.5L105.75 353.75L109.25 354.75L113 356.25L116.75 358.25L120.25 360.75L122.75 363L125.25 365.5L128 369.25L130.75 374.5L132.5 379.75L133.5 385.25L133.75 388.75L136 388L143.25 385.25L147.75 383.5L150 382.75L149 381.75L146.25 379.75L144.25 377.75L142 374.25L140.75 371.25L140 367.5V363.5L141 359L143 355L145 352.5L147.25 350.25L151 348L153.75 347L156.25 346.5H162L165.25 347.25L166.25 347.75H167L168.25 345L172.75 334.5L175.5 328L175.75 327L169.25 315.5L165.75 309.25L158.75 297L155.25 290.75L152.75 286.5L152.5 286.25L145 286ZM225.25 287.25L189.75 297.75L188.5 298.25L185 304.25L181 311.25L180 313.25L183.25 319.25L183.75 320L185 319.75L213.75 307.75L216 307H218L221 308.5L225 311.5L227.75 313.5L232.25 316.75L237 320.25L239.5 321.75L240.5 322H245.5L249.75 321L254.5 319L258.75 316.75L257.5 315.5L253.25 311.5L250.75 309.25L247.25 306L245.25 304.25L242.75 302L236.75 296.5L234.25 294.25L232.25 292.5L229.25 289.75L226.5 287.25H225.25ZM157.5 356.75L155.25 357.5L153.25 359L151.5 361L150.5 363.75V367.25L151.5 369.75L153 371.75L155 373.25L159.25 375.25L168.25 379.25L176 382.75H177.5L187.25 378.75L207.25 370.75L218.25 366.25L221.25 365L221 364L219 361.75L216.5 360L213.5 358.5L209.5 357.5H205.25L201.75 358.25L183 366.5L182 366.75H179.5L175.5 364.75L167.5 360.5L160.5 357L159.75 356.75H157.5ZM95.75 363.75L91.5 364.5L88 365.75L84.75 367.5L81.5 370L79 372.5L76.5 376.25L74.75 380L73.75 383.5L73.5 385.25V391.75L74.25 395.25L75.75 399.25L78 403L80.25 405.75L82.25 407.5L85.5 409.75L89 411.5L93.25 412.75L95.25 413H101L105.5 412L109.75 410.25L112.75 408.25L115.25 406.25L117 404.5L119.25 401.25L121.25 397.25L122.25 393.5L122.75 390.25V386.75L122.25 383.25L121 379.25L119 375.25L117 372.5L115.5 370.75L112.75 368.5L109.5 366.5L105.5 364.75L100.5 363.75H95.75Z" fill="#FE9900"/>
<path d="M425.5 36L428 36.5L429.5 37.5L430.75 39L431.25 40.5V42.5L430.5 44.25L429 46L424.25 48.75L418.75 52L411.5 56.25L405.25 60L383.5 72.75L379.75 75L372.5 79.25L366 84.25L361.5 87.75L358.25 90.25L355.75 92.25L349.25 97.25L342.25 102.75L339 105.25L334.5 108.75L331 111.5L327.75 114L324.25 116.75L317.75 121.75L314.25 124.5L311 129.75L297.25 151.75L293.25 158.25L287.25 167.75L283.25 174.25L280.75 178.25L277.75 183L275.75 186.25L272.75 191L270.75 194.25L268.25 198.25L268 199L271.5 200.5L273.75 201H279.75L283.75 199.75L287 198L289.25 196.25L291.5 193.5L294 189.25L300 179.75L302.5 175.75L305.75 170.5L309.5 164.5L312.5 159.75L314.25 157L316 155.5L327.25 148L338.25 140.75L346.5 135.25L351.5 132L352.75 131.25H373L382 130.75L389.25 130L395.25 129H398.25L400.25 130.25L401.75 132L405.25 137.5L408.25 142.25L410.75 146.25L414.25 151.75L416 155V184.5L416.5 188.25L417.75 193.25L419.25 197.25L421.25 200.75L422.5 202.25V202.75H423L425.25 205L426 205.25L426.75 203L429.5 195.5L433 186L434.5 181.75L435 170L435.75 147.5V141.5L432 116.75L431 110.5V107.25L431.75 105.75L433 104.5L435.5 103.25L450.25 98.5L463.75 94.25L465.5 93.75H468L470 94.75L471.5 96.5L472 97.5V100.5L470.75 102.5L468.75 103.75L462 106L442.5 112.25L442.25 112.75L445 130.5L446.5 140.5V148.25L445.5 177.25L445 183.75L443 189.75L436.25 207.75L434.75 212L433.5 215L431.75 217L430 217.75H427.25L423.75 216.5L419.25 214L416 211.25L413 208L410.5 204L408.5 200L407 196L405.5 189.5L405 186V157.75L403.5 155L400.75 150.75L394.75 141.25L394 140.25L393.25 140L392.5 142.5L389.25 151.5L386.75 158.75L385.5 162.25L385.75 164.25L389.75 177.75L391.75 185L392.5 190.5V193.5L391.75 197.75L390.25 201.75L388.75 204.5L386.5 207.75L383.75 210.75L380.75 213.25L377.5 215.5L374 217.75L371.75 218.75L369.25 218.5L367.25 217.25L366 215.5L362 205.75L358.25 196.5L350.25 176.75L346.75 168L346.25 166.5V164.5L348.75 157.75L351.25 151.25L353.25 146L354.25 143.25L348.25 147L322.75 164L321 166.5L317.75 171.75L300.25 199.75L298.25 202.25L295.25 205.25L291.75 207.75L287.75 209.75L283.25 211.25L281 211.75L278.75 212H274L269.75 211.25L266 210L261.75 208L257.5 205.5L256.25 204.5L255.25 203L255 202.25V199.25L256.25 196.75L259 192.5L263 186L269 176.5L272.75 170.5L276.75 164L279.75 159.25L298.5 129.25L301.75 124L304.75 119.25L306.5 116.75L310.75 113.5L314.5 110.5L317.75 108L321.25 105.25L324.5 102.75L333.5 95.75L336.75 93.25L341 90L344.5 87.25L347.75 84.75L351.25 82L355.75 78.5L360 75.25L364.5 71.75L367 70L373.75 66L381 61.75L384.75 59.5L401.25 49.75L408.5 45.5L413.5 42.5L421.5 37.75L424.25 36.25L425.5 36ZM377.75 142L366 142.5L362.5 151.75L359.5 159.5L358 163.25L357.5 164.75L357.75 166.5L360.5 173.5L365.5 185.75L370.25 197.5L373 204.25L373.5 205.25L374.75 204.75L376.5 203.25V202.75L377.5 202.25L379.75 199.5L381.25 196.25L382 193V190.75L381.25 186L377 171.75L374.75 164V161.25L378.25 151.25L381 143.5L381.5 142H377.75Z" fill="#FE9900"/>
<path d="M140.5 206.25H143.25L145.25 207.25L147 208.75L148.25 210L148.5 210.75H149L150.5 212.5L152 213.75L153.75 215.75L159.5 221.5L161 222.75L162.5 224.5L164 225.75L165.75 227.75L166.75 229.5L167 230V232.5L165.5 235L163.5 236.25L162.75 236.5H160.5L158.5 235.5L142.25 219.25L141 220L105.75 255.25L106.25 256.75L107.75 260.75L108.25 263.5V268.25L107.25 272.25L106.25 274.75L104.75 277.25L102.5 280H102V280.5L99.25 282.5L95.25 284.5L91.75 285.5L90.5 285.75H86.25L81.75 284.75L77.75 282.75L75 280.75L73 278.75L70.75 275.5L69 271.5L68.25 268V263.5L69.25 259.25L71.25 255L73.25 252.5L74.5 251L77.5 248.75L81.5 246.75L85.75 245.75H90.25L94 246.5L97 247.75L98.25 247.5L138 207.75L140.5 206.25ZM87.5 256.25L84.5 257L82.25 258.5L80.25 260.75L79.25 263.25L79 264.5V267L80 270L81.5 272L83.5 273.75L86 274.75L87.25 275L90.5 274.75L93 273.75L95.25 272L97 269.5L97.75 266L97.25 262.75L95.75 259.75L94 258L90.75 256.5L87.5 256.25Z" fill="#FE9900"/>
<path d="M110.5 149.75H115.5L120 150.75L124.25 153L127 155.25L129.25 157.75L131.25 161.25L132.25 163.5V164.25H167L169.25 164.75L171.75 166.75L187 182L188.5 183.75L190 185L191.5 186.75L193 188L194.5 189.75L196 191L197.25 192.5L198.5 193.75L200.5 196L201 197.5V199.25L199.75 201.75L198.5 203L196.25 203.75L194 203.5L192 202.25L191 201.5V201L190 200.5L189 199.5V199L188 198.5V198L187 197.5V197H186.5L184.75 195L179 189.25L177.5 188L175.75 186L170 180.25L168.5 179L166.75 177L165 175.5L164.5 175.25L132.25 175L131.75 177.25L129.5 181.25L126.75 184.5L123.25 187L120.75 188.25L117.5 189.25L115.25 189.75H110.75L106.5 188.75L102.5 186.75L100.5 185.25L98.5 183.5L96 180.25L94 176L93.25 173L93 169L93.5 165.5L94.75 161.75L96.5 158.5L98.5 156L100.5 154L105 151.25L109 150L110.5 149.75ZM110.75 160.5L108.5 161.5L106.5 163L105 165L104 167.25L103.75 170.25L104.25 172.75L105.75 175.5L107.5 177.25L110 178.5L112 179H114.25L117 178.25L119 177L120.25 175.75L121.25 174.5L122.25 172.25L122.5 170.75V168.5L121.5 165.25L120 163.25L118.25 161.75L116.25 160.75L115.5 160.5H110.75Z" fill="#FE9900"/>
<path d="M343.5 240.5L346 240.75L348 242L350.5 244.25L354 247.75V248.25L355 248.75V249.25L356 249.75L360 253.75V254.25L361 254.75V255.25L362 255.75L375 268.75L407.75 269L408.5 266.5L410 263.5L412.75 260.25L415 258.25L418.25 256.25L421.75 255L424.5 254.5H429.25L432.75 255.25L435.75 256.5L438.25 258L441.5 260.75L444 264L445.75 267.75L446.75 271.75V277L445.75 281L443.75 285L442.25 287.25L439.5 290L436 292.25L432 293.75L428.25 294.5H425.75L422.25 294L418.5 292.75L414.75 290.5L411 286.75L409 283.5L407.5 280L372 279.75L370.25 279L368.25 277.25L340.25 249.25L339 246.75L339.25 244.25L340.5 242.25L342 241L343.5 240.5ZM424.75 265.25L421.75 266.5L419.5 268.5L418.25 270.5L417.5 273V276L418.25 278.5L420 281L421.75 282.5L424 283.5L425 283.75H428.5L431.25 282.75L433.25 281.25L434.75 279.5L435.75 277.5L436 276.5V272.5L435 270L434 268.5L432.25 266.75L429.5 265.5L428.5 265.25H424.75Z" fill="#FE9900"/>
<path d="M210.5 46.5H215.75L219.75 47.5L223.75 49.5L226.5 51.5L228.5 53.5L230.25 56L232 59.5L233 63.5V69.5L232 73.5L230 77.25L228.25 79.5L227 81L223.5 83.5L220.5 85L218.75 85.75V118.25L245.75 145.25L247 147.75V149.75L245.75 152.25L243.75 153.75L243 154H240.25L238.75 153.25L236.25 151L209.25 124L208 122L207.75 120.5V85.5L206.25 85.25L202.75 83.5L199.75 81.25L197.5 79L195 75L193.5 70.75L193 67L193.25 63.5L194.25 59.75L195.25 57.5L197 54.5L197.5 53.75H198L198.5 52.75L200.25 51L204 48.5L208 47L210.5 46.5ZM212 57L209.25 57.75L207 59.25L205.25 61.25L204 64.25L203.75 67.25L204.25 69.5L205.5 71.75L207.25 73.75L209.5 75L212 75.75H214L216.25 75.25L218.25 74.25L220.5 72.25L222 69.75L222.5 67L222.25 64L221.25 61.5L219 59L217 57.75L214.25 57H212Z" fill="#FE9900"/>
<path d="M297.25 290H299L301 290.75L303.5 293L330.75 320.25L332 322.5L332.25 358.5L336 360L338.75 361.75L341.75 364.5L344 367.5L345.75 371.25L346.5 374L346.75 375.75V380L345.75 384.25L343.75 388.25L341.75 391L339.5 393.25L336 395.5L332.25 397L328.75 397.75H324.75L321 397L318 395.75L315 394L311.75 391L309.5 388L307.75 384.25L307 381.5L306.75 380V376L307.5 372.25L308.5 369.5L310.5 366L313.25 363L315.75 361L319.75 359L321.25 358.75V326.25L319.5 324.25L294.25 299L293 297L292.75 295.25L293.25 293.25L294.25 291.75L295.75 290.5L297.25 290ZM324.75 368.5L322.5 369.25L320.5 370.75L318.75 372.75L317.75 375.25L317.5 376V379.5L318.5 382.25L320 384.25L321.75 385.75L324 386.75L325.25 387H328.25L330.75 386.25L333 384.75L334.75 382.75L335.75 380.5L336 379.5V376L335 373.25L334 371.75L332.75 370.5L331.5 369.5L328.75 368.5H324.75Z" fill="#FE9900"/>
<path d="M290.5 336.5H293.25L295.25 337.5L296.75 339.25L297.25 340.5V342.75L296.5 344.5L294 348L289 354.5L286 358.5L282.5 363L277.25 370L274 374.25L269 380.75L265.25 385.75L261.75 390.25L259.5 393.25L260 394.5L261.75 398.5L262.75 402.25V407.75L261.75 411.5L260.75 414L259 416.75L256.25 419.75L253.75 421.75L249.75 423.75L246 424.75L242 425L238.25 424.5L235.25 423.5L232.25 422L230 420.25L228.25 418.75L225.75 415.5L224 412L223.25 409.75L222.75 406.25V403.75L223.5 399.5L224.5 396.75L226 394L227.75 391.75L229 390.5L231.5 388.25L235.25 386.25L238.5 385.25L240 385H245.25L249 385.75L250.5 386.5H251.5L252 385.5L255.5 380.75L260.5 374.25L263.5 370.25L267 365.75L270 361.75L274 356.5L277.75 351.5L280.5 348L288 338L289.75 336.75L290.5 336.5ZM243 395.5L239.75 396L237.25 397.25L235.25 399.25L234 401.5L233.5 403.75V406.25L234.25 408.75L235.5 410.75L236.75 412L238 413L240.5 414L241.5 414.25H244.25L247.25 413.25L249.25 411.75L251 409.75L252 407V403L251 400.25L249.5 398.25L247.5 396.75L245 395.75L243 395.5Z" fill="#FE9900"/>
<path d="M299.25 43H303.25L307.25 43.75L310.75 45.25L313.75 47.25L316.25 49.5L318.5 52.5L320.25 56.25L321.25 60L321.5 63L321 67.25L319.75 71L318 74.25L316 76.75L313.5 79L310.25 81L306.75 82.25L305 82.75L303 83H299.5L295.75 82.25L292.5 81L291.25 80.25L290.25 80.75L263.75 107.25H263.25L265 109.25L270.75 115L272.25 117.25L272.5 118V120.5L271.5 122.5L269.75 124L267.25 124.75L264.75 124L262.25 121.75L252 111.5L250.75 109.5L250.5 108.5V106.75L251.75 104.25L253 102.75H253.5V102.25H254V101.75L255.75 100.25L256 99.75H256.5V99.25H257V98.75H257.5V98.25H258V97.75H258.5V97.25H259V96.75H259.5V96.25H260V95.75H260.5V95.25H261V94.75H261.5V94.25H262V93.75H262.5V93.25H263V92.75H263.5V92.25H264V91.75H264.5V91.25H265V90.75H265.5V90.25H266V89.75H266.5V89.25H267V88.75H267.5V88.25H268V87.75H268.5V87.25H269V86.75H269.5V86.25H270V85.75H270.5V85.25H271V84.75H271.5V84.25H272V83.75H272.5V83.25H273V82.75H273.5V82.25H274L274.5 81.25H275L275.5 80.25L282 73.75L283.5 72.5L281.75 67.25L281.25 64.25V61.75L282 57.5L283.5 53.75L285.25 51L288.25 47.75L291.5 45.5L294.75 44L297.25 43.25L299.25 43ZM301 53.5L298 54L295.5 55.5L293.75 57.25L292.5 59.75L292 61.5V64.5L293 67.25L294 68.75L295.25 70L296.5 71L299 72L300.25 72.25H302.5L305 71.5L307.5 70L309.25 68L310.25 65.75L310.5 64.75V60.75L309.5 58.25L307.75 56L305.5 54.5L303.75 53.75L301 53.5Z" fill="#FE9900"/>
<path d="M141 75.75H144L148.25 76.5L152.25 78.25L154.75 80L157.25 82.25L159.25 84.75L161.25 88.75L162.25 92L162.5 93.5V97.75L161.5 102.25L160 105.5L159.75 106.5L181 127.75L182 129.75V132.5L180.5 135L179 136L176.25 136.5L174.25 135.75L171.75 133.75L169.5 131.5V131L168.5 130.5V130L167.5 129.5V129L166.5 128.5V128L165.5 127.5V127L164.5 126.5V126L163.5 125.5V125L162.5 124.5V124L161.5 123.5V123L160.5 122.5V122L159.5 121.5V121L158.5 120.5V120L157.5 119.5V119L156.5 118.5V118L155.5 117.5V117L154.5 116.5L152.75 114.5L151.5 113.75L147.5 115.25L145.25 115.75H139.5L135.75 114.75L131.75 112.75L129.75 111.25L128 109.75L126 107.25L124 103.75L122.75 99.75L122.5 98V93.75L123.25 90L125 86L126.75 83.5L129 81L131.75 78.75L135.25 77L137.5 76.25L141 75.75ZM140.75 86.5L138 87.5L136 89L134.5 90.75L133.5 93.25L133.25 94.25V97.5L134.25 100.25L135.75 102.25L137.5 103.75L139.5 104.75L140.75 105H144.25L147 104L149 102.5L150.75 100.5L151.75 97.75V93.75L150.5 90.75L148.25 88.25L145.25 86.75L144.25 86.5H140.75Z" fill="#FE9900"/>
<path d="M362.5 307.75L364.75 308L367 309.25V309.75L368 310.25L388.25 330.5L392 329L394.25 328.5L398 328.25L402 328.75L405.5 330L408.25 331.5L410.75 333.5L413.25 336L415.25 339.25L416.5 342.25L417.25 345.25L417.5 349.25L416.75 353.75L415.5 357L413.75 360L411.5 362.5L410.25 363.75L407.5 365.75L404.75 367L401.5 368L397 368.5L393 368L389.25 366.75L385.75 364.75L382.75 362L380.75 359.5L379.25 357L378 353.75L377.5 351.5V345.5L378.5 341.75L379.5 339.25L380 338.25L379.75 337.25L359 316.5L358 314.75L357.75 313L358.25 311L359.25 309.5L360.75 308.25L362.5 307.75ZM396.25 339L393 340L390.75 341.75L389.25 343.75L388.25 346.5L388 349L388.75 352L390 354.25L392.5 356.5L395 357.5L396.25 357.75H398.5L401.75 356.75L403.75 355.25L405.5 353.25L406.5 350.75L406.75 349.75V347.25L405.75 344L404.25 342L402.25 340.25L399.75 339.25L398.25 339H396.25Z" fill="#FE9900"/>
<path d="M315.75 262H318.75L320.75 263L349.25 291.5L350.75 294V296.5L349.75 298.5L348 300L346.25 300.75L343.75 300.5L341.5 299L313.25 270.75L312 268.5V265.75L313 263.75H313.5V263.25L315.75 262Z" fill="#FE9900"/>
<path d="M193.75 143.5L196.25 143.75L198.5 145.25L227 173.75L228 175.75V178.25L226.75 180.5L225.25 181.75L223.75 182.25H221.25L219.25 181L216.75 178.75L214.5 176.5V176L213.5 175.5V175L212.5 174.5L210.75 172.5L190.25 152L189.25 150V147.75L190.5 145.25L192.75 143.75L193.75 143.5Z" fill="#FE9900"/>
<path d="M98.25 382.75H100L102 383.5L103.25 384.5L104.5 387V389.25L103.5 391.25L102.25 392.5L100.25 393.5L98.25 394H96L94.25 393.25L92.75 392L91.75 389.75V387.5L93 385L94.75 383.75L98.25 382.75Z" fill="#FE9900"/>
</svg>
