<svg width="512" height="512" viewBox="0 0 512 512" fill="none" xmlns="http://www.w3.org/2000/svg">
<path opacity="0.961" fill-rule="evenodd" clip-rule="evenodd" d="M244.5 -0.5C251.833 -0.5 259.167 -0.5 266.5 -0.5C292.603 5.77064 308.436 22.104 314 48.5C316.83 74.5024 307.496 94.8357 286 109.5C285.5 116.158 285.334 122.825 285.5 129.5C294.625 129.739 302.125 126.406 308 119.5C311.426 112.149 314.092 104.482 316 96.5C322.648 82.5174 333.481 73.6841 348.5 70C379.517 69.8817 410.517 69.215 441.5 68C461.578 63.4737 481.578 58.6404 501.5 53.5C505.844 53.9978 509.177 55.9978 511.5 59.5C511.5 65.1667 511.5 70.8333 511.5 76.5C508.712 92.4113 501.878 106.411 491 118.5C489.619 144.263 478.952 165.263 459 181.5C424.774 230.842 378.608 247.342 320.5 231C308.089 226.297 296.756 219.797 286.5 211.5C285.501 222.814 285.168 234.147 285.5 245.5C328.889 245.39 352.889 266.89 357.5 310C355.477 341.737 339.477 362.737 309.5 373C301.617 374.927 293.617 375.76 285.5 375.5C285.78 393.861 285.447 412.194 284.5 430.5C307.663 428.325 323.497 437.992 332 459.5C336.448 485.625 326.281 502.959 301.5 511.5C296.833 511.5 292.167 511.5 287.5 511.5C279.555 504.997 279.555 498.497 287.5 492C306.147 491.045 313.98 481.545 311 463.5C308.438 457.939 304.272 454.106 298.5 452C292.888 450.869 287.221 450.369 281.5 450.5C278.485 469.893 272.985 488.56 265 506.5C263.634 508.362 262.134 510.028 260.5 511.5C257.5 511.5 254.5 511.5 251.5 511.5C249.897 510.404 248.397 509.07 247 507.5C238.645 489.27 232.812 470.27 229.5 450.5C216.829 450.667 204.162 450.5 191.5 450C163.018 440.823 150.852 421.323 155 391.5C160.924 370.909 174.424 358.742 195.5 355C205.494 354.5 215.494 354.334 225.5 354.5C225.5 324.833 225.5 295.167 225.5 265.5C203.05 263.969 186.55 272.969 176 292.5C170.599 307.355 171.766 321.688 179.5 335.5C178.212 344.287 173.212 347.787 164.5 346C162.714 345.215 161.214 344.049 160 342.5C145.142 311.481 149.975 283.981 174.5 260C189.443 248.179 206.443 243.346 225.5 245.5C225.832 234.147 225.499 222.814 224.5 211.5C185.325 240.978 143.325 245.478 98.5 225C79.4752 214.31 63.9752 199.81 52 181.5C32.048 165.263 21.3814 144.263 20 118.5C9.12169 106.411 2.28836 92.4113 -0.5 76.5C-0.5 70.8333 -0.5 65.1667 -0.5 59.5C1.82281 55.9978 5.15614 53.9978 9.5 53.5C29.4221 58.6404 49.4221 63.4737 69.5 68C100.483 69.215 131.483 69.8817 162.5 70C177.519 73.6841 188.352 82.5174 195 96.5C196.908 104.482 199.574 112.149 203 119.5C208.875 126.406 216.375 129.739 225.5 129.5C225.666 122.825 225.5 116.158 225 109.5C198.354 90.5581 190.354 65.5581 201 34.5C210.029 15.9648 224.529 4.29815 244.5 -0.5ZM247.5 20.5C270.783 18.3807 285.949 28.3807 293 50.5C295.233 74.5469 284.733 89.7135 261.5 96C238.756 97.5479 224.256 87.3812 218 65.5C215.862 42.4009 225.695 27.4009 247.5 20.5ZM22.5 78.5C37.3734 82.4681 52.3734 85.9681 67.5 89C95.8333 89.3333 124.167 89.6667 152.5 90C162.548 90.2733 170.048 94.7733 175 103.5C176.817 117.969 182.984 130.135 193.5 140C202.912 147.189 213.579 150.689 225.5 150.5C225.666 160.839 225.5 171.172 225 181.5C190.398 218.553 150.232 226.053 104.5 204C100.553 201.72 96.8866 199.053 93.5 196C102.934 195.947 112.267 195.28 121.5 194C126.833 188.333 126.833 182.667 121.5 177C110.577 175.747 99.5767 174.747 88.5 174C67.4147 169.562 53.2481 157.395 46 137.5C54.2949 141.783 63.1282 144.283 72.5 145C82.8333 145.667 93.1667 145.667 103.5 145C110.717 142.028 112.883 136.861 110 129.5C108.363 127.19 106.196 125.69 103.5 125C91.4637 124.838 79.4637 124.171 67.5 123C44.0086 116.675 29.0086 101.842 22.5 78.5ZM486.5 78.5C487.497 78.4701 488.164 78.9701 488.5 80C481.318 102.515 466.318 116.849 443.5 123C431.536 124.171 419.536 124.838 407.5 125C400.283 127.972 398.117 133.139 401 140.5C402.637 142.81 404.804 144.31 407.5 145C427.722 147.255 447.055 145.088 465.5 138.5C457.356 157.809 443.023 169.643 422.5 174C411.423 174.747 400.423 175.747 389.5 177C384.167 182.667 384.167 188.333 389.5 194C398.733 195.28 408.066 195.947 417.5 196C390.229 216.767 360.229 221.767 327.5 211C311.328 204.494 297.494 194.66 286 181.5C285.5 171.172 285.334 160.839 285.5 150.5C303.947 150.53 318.114 142.863 328 127.5C331.28 119.716 333.947 111.716 336 103.5C340.952 94.7733 348.452 90.2733 358.5 90C386.833 89.6667 415.167 89.3333 443.5 89C458.144 86.255 472.477 82.755 486.5 78.5ZM245.5 116.5C251.834 117.792 258.167 117.792 264.5 116.5C265.5 195.831 265.833 275.164 265.5 354.5C258.833 354.5 252.167 354.5 245.5 354.5C245.5 275.167 245.5 195.833 245.5 116.5ZM285.5 265.5C307.306 264.977 323.139 274.31 333 293.5C339.981 315.221 334.481 333.055 316.5 347C306.948 352.675 296.615 355.175 285.5 354.5C285.5 324.833 285.5 295.167 285.5 265.5ZM196.5 375.5C206.167 375.5 215.833 375.5 225.5 375.5C225.234 393.857 225.567 412.19 226.5 430.5C216.122 430.804 205.789 430.304 195.5 429C177.721 422.274 171.554 409.774 177 391.5C181.312 383.341 187.812 378.008 196.5 375.5ZM245.5 375.5C252.167 375.5 258.833 375.5 265.5 375.5C266.804 406.978 263.637 437.978 256 468.5C251.949 457.218 249.282 445.551 248 433.5C246.232 414.209 245.399 394.876 245.5 375.5Z" fill="#FE9900"/>
</svg>
