<svg width="512" height="512" viewBox="0 0 512 512" fill="none" xmlns="http://www.w3.org/2000/svg">
<path opacity="0.915" fill-rule="evenodd" clip-rule="evenodd" d="M248.5 33.4997C269.859 31.7639 286.359 39.7639 298 57.4997C307.842 77.5532 306.176 96.5532 293 114.5C271.36 134.9 248.194 136.734 223.5 120C208.095 105.107 203.262 87.2736 209 66.4997C216.267 48.3022 229.434 37.3022 248.5 33.4997ZM246.5 45.4997C247.5 45.4997 248.5 45.4997 249.5 45.4997C249.5 52.1664 249.5 58.833 249.5 65.4997C245.774 65.8223 242.107 65.4889 238.5 64.4997C239.835 58.4923 241.169 52.4923 242.5 46.4997C244.099 46.7675 245.432 46.4342 246.5 45.4997ZM261.5 45.4997C263.806 45.9923 266.139 46.3256 268.5 46.4997C269.99 52.7923 271.323 59.1257 272.5 65.4997C268.833 65.4997 265.167 65.4997 261.5 65.4997C261.5 58.833 261.5 52.1664 261.5 45.4997ZM282.5 56.4997C284.829 58.841 286.829 61.5076 288.5 64.4997C286.955 65.4516 285.288 65.7849 283.5 65.4997C283.492 62.4549 283.159 59.4549 282.5 56.4997ZM227.5 57.4997C227.986 59.9514 227.986 62.618 227.5 65.4997C225.712 65.7849 224.045 65.4516 222.5 64.4997C223.931 61.961 225.597 59.6276 227.5 57.4997ZM218.5 77.4997C221.167 77.4997 223.833 77.4997 226.5 77.4997C226.5 80.833 226.5 84.1664 226.5 87.4997C218.134 88.7747 215.467 85.4414 218.5 77.4997ZM237.5 77.4997C241.5 77.4997 245.5 77.4997 249.5 77.4997C249.5 80.833 249.5 84.1664 249.5 87.4997C245.5 87.4997 241.5 87.4997 237.5 87.4997C237.5 84.1664 237.5 80.833 237.5 77.4997ZM261.5 77.4997C265.5 77.4997 269.5 77.4997 273.5 77.4997C273.5 80.833 273.5 84.1664 273.5 87.4997C269.5 87.4997 265.5 87.4997 261.5 87.4997C261.5 84.1664 261.5 80.833 261.5 77.4997ZM285.5 77.4997C293.234 76.1601 295.568 79.1601 292.5 86.4997C290.257 87.4739 287.924 87.8073 285.5 87.4997C285.5 84.1664 285.5 80.833 285.5 77.4997ZM221.5 99.4997C223.265 98.5383 225.265 98.205 227.5 98.4997C227.543 101.587 227.71 104.587 228 107.5C225.575 104.947 223.408 102.28 221.5 99.4997ZM238.5 98.4997C242.167 98.4997 245.833 98.4997 249.5 98.4997C249.5 105.5 249.5 112.5 249.5 119.5C247.173 119.335 245.007 118.669 243 117.5C240.711 111.343 239.211 105.009 238.5 98.4997ZM261.5 98.4997C265.167 98.4997 268.833 98.4997 272.5 98.4997C271.789 105.009 270.289 111.343 268 117.5C265.993 118.669 263.827 119.335 261.5 119.5C261.5 112.5 261.5 105.5 261.5 98.4997ZM284.5 98.4997C286.199 98.3395 287.866 98.5062 289.5 98.9997C283.241 109.912 281.574 109.746 284.5 98.4997Z" fill="#FE9900"/>
<path opacity="0.852" fill-rule="evenodd" clip-rule="evenodd" d="M182.5 91.4993C190.207 90.2007 192.873 93.2007 190.5 100.499C185.519 104.667 179.852 106.5 173.5 105.999C171.271 103.446 170.938 100.613 172.5 97.4993C175.897 95.4734 179.23 93.4734 182.5 91.4993Z" fill="#FE9900"/>
<path opacity="0.851" fill-rule="evenodd" clip-rule="evenodd" d="M321.5 91.5004C328.262 91.4631 334.095 93.7965 339 98.5004C340.324 105.505 337.49 108.005 330.5 106C327.167 104.333 323.833 102.667 320.5 101C319.01 97.6032 319.344 94.4365 321.5 91.5004Z" fill="#FE9900"/>
<path opacity="0.862" fill-rule="evenodd" clip-rule="evenodd" d="M158.5 104.5C165.56 103.725 168.06 106.725 166 113.5C161.41 116.879 156.91 120.379 152.5 124C144.873 128.365 141.373 126.198 142 117.5C147.66 113.268 153.16 108.934 158.5 104.5Z" fill="#FE9900"/>
<path opacity="0.862" fill-rule="evenodd" clip-rule="evenodd" d="M347.5 104.5C349.199 104.34 350.866 104.506 352.5 105C358.09 109.045 363.59 113.212 369 117.5C370.48 123.338 368.313 126.171 362.5 126C356.403 122.201 350.569 118.035 345 113.5C343.779 109.718 344.613 106.718 347.5 104.5Z" fill="#FE9900"/>
<path opacity="0.868" fill-rule="evenodd" clip-rule="evenodd" d="M130.5 127.5C137.693 126.847 140.193 129.847 138 136.5C133.133 141.032 128.633 145.866 124.5 151C117.304 152.143 114.804 149.309 117 142.5C121.337 137.331 125.837 132.331 130.5 127.5Z" fill="#FE9900"/>
<path opacity="0.864" fill-rule="evenodd" clip-rule="evenodd" d="M374.5 127.499C376.92 127.291 379.253 127.625 381.5 128.499C384.818 132.317 388.318 135.984 392 139.499C396.175 143.284 396.341 147.117 392.5 150.999C390.5 151.666 388.5 151.666 386.5 150.999C382.367 145.865 377.867 141.031 373 136.499C371.058 133.14 371.558 130.14 374.5 127.499Z" fill="#FE9900"/>
<path opacity="0.847" fill-rule="evenodd" clip-rule="evenodd" d="M108.5 154.5C114.377 154.206 116.877 156.872 116 162.5C113.873 166.589 111.373 170.423 108.5 174C103.608 175.69 100.608 174.023 99.5 169C101.556 163.473 104.556 158.64 108.5 154.5Z" fill="#FE9900"/>
<path opacity="0.846" fill-rule="evenodd" clip-rule="evenodd" d="M398.5 154.5C402.876 155.024 406.043 157.357 408 161.5C409.303 163.94 410.47 166.44 411.5 169C410.392 174.023 407.392 175.69 402.5 174C397.653 169.478 395.153 163.978 395 157.5C396.145 156.364 397.312 155.364 398.5 154.5Z" fill="#FE9900"/>
<path opacity="0.895" fill-rule="evenodd" clip-rule="evenodd" d="M241.5 162.5C250.839 162.334 260.173 162.5 269.5 163C270.931 163.465 272.097 164.299 273 165.5C273.173 169.541 273.673 173.541 274.5 177.5C282.696 179.674 290.363 183.008 297.5 187.5C300.628 184.03 304.295 181.364 308.5 179.5C316.452 185.95 323.952 192.95 331 200.5C331.706 202.971 331.373 205.305 330 207.5C327.833 209.667 325.667 211.833 323.5 214C328.652 221.801 331.985 230.301 333.5 239.5C338.099 239.2 342.599 239.533 347 240.5C348.094 246.087 348.594 251.754 348.5 257.5C348.618 262.941 348.118 268.274 347 273.5C346.5 274 346 274.5 345.5 275C341.514 275.499 337.514 275.666 333.5 275.5C331.645 284.562 328.312 293.062 323.5 301C326 303.5 328.5 306 331 308.5C331.706 310.971 331.373 313.305 330 315.5C323.833 321.667 317.667 327.833 311.5 334C308.697 334.755 306.03 334.422 303.5 333C302.042 330.54 300.209 328.373 298 326.5C289.524 330.99 280.691 334.49 271.5 337C277.842 348.572 276.175 358.906 266.5 368C263.382 369.893 260.049 371.226 256.5 372C237.167 372.333 217.833 372.667 198.5 373C190.602 375.29 187.769 380.457 190 388.5C190.833 392 193 394.167 196.5 395C216.833 395.667 237.167 395.667 257.5 395C264.811 393.345 271.478 390.345 277.5 386C302.59 359.908 328.59 334.908 355.5 311C365.716 304.616 375.55 305.116 385 312.5C390.028 323.455 389.361 334.121 383 344.5C355.205 376.63 327.038 408.464 298.5 440C292.186 445.489 284.853 448.822 276.5 450C233.5 450.333 190.5 450.667 147.5 451C142.72 452.556 138.387 454.889 134.5 458C128.909 465.428 122.243 471.594 114.5 476.5C87.5434 451.377 61.3767 425.377 36 398.5C35.3623 397.391 34.8623 396.225 34.5 395C35.716 391.779 37.716 389.112 40.5 387C66.1301 365.039 91.4634 342.705 116.5 320C129.98 310.215 144.98 306.882 161.5 310C166.021 310.729 170.354 312.063 174.5 314C178.027 316.591 181.694 318.591 185.5 320C181.073 317.315 179.24 313.482 180 308.5C182.683 305.984 185.183 303.317 187.5 300.5C182.597 292.791 179.264 284.458 177.5 275.5C173.486 275.666 169.486 275.499 165.5 275C165 274.5 164.5 274 164 273.5C162.88 268.107 162.38 262.607 162.5 257C162.38 251.393 162.88 245.893 164 240.5C168.401 239.533 172.901 239.2 177.5 239.5C179.015 230.301 182.348 221.801 187.5 214C185.333 211.833 183.167 209.667 181 207.5C179.627 205.305 179.294 202.971 180 200.5C187.048 192.95 194.548 185.95 202.5 179.5C206.705 181.364 210.372 184.03 213.5 187.5C220.637 183.008 228.304 179.674 236.5 177.5C237.327 173.541 237.827 169.541 238 165.5C239.145 164.364 240.312 163.364 241.5 162.5ZM248.5 173.5C253.167 173.5 257.833 173.5 262.5 173.5C262.334 177.514 262.501 181.514 263 185.5C263.5 186 264 186.5 264.5 187C275.85 189.003 286.183 193.336 295.5 200C297.5 200.667 299.5 200.667 301.5 200C303.977 198.357 306.31 196.524 308.5 194.5C312.396 197.206 315.23 200.539 317 204.5C313.831 206.827 311.664 209.827 310.5 213.5C313.495 218.685 316.329 224.018 319 229.5C321.277 235.332 322.944 241.332 324 247.5C324.903 248.701 326.069 249.535 327.5 250C330.817 250.498 334.15 250.665 337.5 250.5C337.5 255.167 337.5 259.833 337.5 264.5C333.818 264.335 330.152 264.501 326.5 265C325.692 265.308 325.025 265.808 324.5 266.5C323.001 271.828 321.501 277.161 320 282.5C316.815 288.87 313.649 295.203 310.5 301.5C311.834 305.344 314.168 308.511 317.5 311C314.977 315.205 311.644 318.205 307.5 320C305.173 316.831 302.173 314.664 298.5 313.5C278.289 325.868 256.623 329.368 233.5 324C225.906 321.536 218.906 318.036 212.5 313.5C208.639 315.02 205.305 317.353 202.5 320.5C199.683 317.182 196.683 314.015 193.5 311C197.059 308.455 199.392 305.121 200.5 301C193.954 290.73 189.454 279.563 187 267.5C186.5 266.333 185.667 265.5 184.5 265C181.183 264.502 177.85 264.335 174.5 264.5C174.5 259.833 174.5 255.167 174.5 250.5C177.518 250.665 180.518 250.498 183.5 250C184.931 249.535 186.097 248.701 187 247.5C188.178 242.457 189.511 237.457 191 232.5C194.198 225.982 197.365 219.482 200.5 213C199.155 209.64 196.988 206.807 194 204.5C193.333 203.833 193.333 203.167 194 202.5C197 199.5 200 196.5 203 193.5C204.913 197.585 208.08 199.918 212.5 200.5C218.236 197.961 223.903 195.128 229.5 192C235.053 189.927 240.72 188.26 246.5 187C247 186.5 247.5 186 248 185.5C248.499 181.514 248.666 177.514 248.5 173.5ZM249.5 225.5C267.396 224.02 279.229 231.687 285 248.5C287.003 270.332 277.17 282.999 255.5 286.5C233.83 282.999 223.997 270.332 226 248.5C229.761 236.571 237.595 228.904 249.5 225.5ZM367.5 317.5C376.192 317.701 379.359 322.035 377 330.5C375.254 334.327 373.254 337.993 371 341.5C343.537 372.632 315.703 403.465 287.5 434C284.618 435.608 281.618 436.941 278.5 438C233.808 438.042 189.141 438.709 144.5 440C132.104 444.053 122.271 451.553 115 462.5C93.3479 440.014 71.5146 417.681 49.5 395.5C74.6949 372.139 100.362 349.305 126.5 327C139.185 319.943 152.518 318.61 166.5 323C171.833 326.333 177.167 329.667 182.5 333C186.068 334.618 189.735 335.951 193.5 337C214.13 338.262 234.796 338.928 255.5 339C260.954 340.121 263.954 343.454 264.5 349C263.762 355.132 260.429 359.132 254.5 361C233.449 361.046 212.449 361.712 191.5 363C179.829 368.962 175.662 378.462 179 391.5C181.167 399 186 403.833 193.5 406C217.209 406.949 240.875 406.616 264.5 405C271.724 402.721 278.391 399.388 284.5 395C308.558 370.274 333.225 346.274 358.5 323C361.263 320.626 364.263 318.792 367.5 317.5Z" fill="#FE9900"/>
<path opacity="0.903" fill-rule="evenodd" clip-rule="evenodd" d="M67.5001 178.501C84.5014 176.251 97.0014 182.584 105 197.501C122.15 194.766 132.15 202.099 135 219.501C145.735 230.888 146.235 242.721 136.5 255.001C132.817 258.341 128.484 260.341 123.5 261.001C97.1668 261.668 70.8334 261.668 44.5001 261.001C28.2093 256.6 22.0426 246.1 26.0001 229.501C29.0896 222.077 34.423 217.077 42.0001 214.501C42.25 196.45 50.75 184.45 67.5001 178.501ZM70.5001 189.501C77.5809 188.806 83.9142 190.64 89.5001 195.001C93.0342 199.745 96.0342 204.745 98.5001 210.001C100.5 210.668 102.5 210.668 104.5 210.001C111.755 205.796 117.589 207.296 122 214.501C122.852 218.192 123.518 221.859 124 225.501C134.019 232.055 134.853 239.555 126.5 248.001C124.608 248.974 122.608 249.641 120.5 250.001C96.1668 250.668 71.8334 250.668 47.5001 250.001C37.9465 247.72 34.4465 241.886 37.0001 232.501C40.33 227.252 45.1633 224.752 51.5001 225.001C52.9309 224.536 54.0976 223.702 55.0001 222.501C50.6907 206.889 55.8574 195.889 70.5001 189.501Z" fill="#FE9900"/>
<path opacity="0.92" fill-rule="evenodd" clip-rule="evenodd" d="M411.5 183.5C435.502 183.333 459.502 183.5 483.5 184C484.333 184.833 485.167 185.667 486 186.5C486.667 217.167 486.667 247.833 486 278.5C485.167 279.333 484.333 280.167 483.5 281C479.514 281.499 475.514 281.666 471.5 281.5C471.665 285.182 471.499 288.848 471 292.5C470.535 293.931 469.701 295.097 468.5 296C442.5 296.667 416.5 296.667 390.5 296C390 295.5 389.5 295 389 294.5C388.333 263.5 388.333 232.5 389 201.5C389.5 200.333 390.333 199.5 391.5 199C397.157 198.501 402.824 198.334 408.5 198.5C408.334 194.486 408.501 190.486 409 186.5C410.045 185.627 410.878 184.627 411.5 183.5ZM419.5 194.5C438.167 194.5 456.833 194.5 475.5 194.5C475.5 219.833 475.5 245.167 475.5 270.5C474.167 270.5 472.833 270.5 471.5 270.5C471.958 253.097 471.458 235.764 470 218.5C463.469 211.635 456.636 205.135 449.5 199C439.506 198.5 429.506 198.334 419.5 198.5C419.5 197.167 419.5 195.833 419.5 194.5ZM399.5 209.5C414.837 209.333 430.17 209.5 445.5 210C450 214.5 454.5 219 459 223.5C459.5 244.164 459.667 264.831 459.5 285.5C439.5 285.5 419.5 285.5 399.5 285.5C399.5 260.167 399.5 234.833 399.5 209.5Z" fill="#FE9900"/>
<path opacity="0.893" fill-rule="evenodd" clip-rule="evenodd" d="M246.5 214.5C271.42 211.615 287.92 221.949 296 245.5C299.976 270.501 290.143 287.334 266.5 296C244.092 300.378 227.592 292.544 217 272.5C209.103 243.959 218.936 224.625 246.5 214.5ZM249.5 225.5C237.595 228.904 229.761 236.571 226 248.5C223.997 270.332 233.83 282.999 255.5 286.5C277.17 282.999 287.003 270.332 285 248.5C279.229 231.687 267.396 224.02 249.5 225.5Z" fill="#FE9900"/>
<path opacity="0.903" fill-rule="evenodd" clip-rule="evenodd" d="M406.5 234.5C421.837 234.333 437.17 234.5 452.5 235C456 238.004 456.333 241.337 453.5 245C437.833 245.667 422.167 245.667 406.5 245C402.55 241.551 402.55 238.051 406.5 234.5Z" fill="#FE9900"/>
<path opacity="0.843" fill-rule="evenodd" clip-rule="evenodd" d="M407.5 249.5C422.17 249.333 436.837 249.5 451.5 250C455.213 251.691 456.379 254.525 455 258.5C454.097 259.701 452.931 260.535 451.5 261C436.833 261.667 422.167 261.667 407.5 261C403.787 259.309 402.621 256.475 404 252.5C405.145 251.364 406.312 250.364 407.5 249.5Z" fill="#FE9900"/>
</svg>
