<svg width="512" height="512" viewBox="0 0 512 512" fill="none" xmlns="http://www.w3.org/2000/svg">
<g clip-path="url(#clip0_103_53)">
<path d="M38.25 0H256.75L260.5 1L265.5 2.5L269.5 4.25L273.25 6.25L276.25 8.25L278.75 10.25L281.25 12.5L284.25 15.5L286.75 18.75L289 22.25L291 26L293 31.25L294.25 36L294.75 39L295 42V217L346.25 216.75L347 216L349.5 211.25L352.5 206.25L355.75 201.5L358.75 197.5L362.25 193.25L365 190.25L371.5 183.75L374.25 181.5L377.25 179L381.75 175.75L385.5 173.25L390.5 170.25L396.5 167L403.75 163.75L409.75 161.5L417.25 159.25L423.5 157.75L428.25 157H433L436 157.75L439 159.25L441 160.75V161.25H441.5V161.75H442L444.25 165L445.5 168L445.75 169.25L446 187.25V217L449.5 216.75H462.75L470.75 217L476.5 217.75L481.75 219.25L487 221.5L491.5 224L495.5 227L498.5 229.75L501.25 232.5L504.5 236.75L507.25 241.5L509 245.25L510.5 249.75L511.5 253.75H512V474.75L511.5 475L510.25 480L508.75 484.25L506.5 489L504.75 491.75L502.25 495.25L499.25 498.5L498 499.75L495 502.5L492.5 504.25L489.25 506.25L485.25 508.25L480.75 510L475.25 511.5L473 512H256L247.5 509.75L243.75 508.25L239.75 506.25L235.5 503.5L232.75 501.25L229.75 498.5L227 495.5L224.25 491.75L221.5 487L219.75 483L218.5 479.25L217.5 474.75L217 471L216.75 463.5V295L165.25 295.25L163.25 299.25L160.25 304.5L157.75 308.25L154.75 312.5L151.5 316.5L149.25 319.25L145.75 323L141.75 327L139.75 328.75L136.5 331.5L133.5 333.75L129 337L123 340.75L117.5 343.75L110.75 347L103.75 349.75L96.75 352L88.75 354L82.75 355H79.75L76.25 354.25L72.75 352.5L69.75 349.75L68.25 347.75L66.75 344.75L66.25 343L66 341V295H42.75L37.5 294.5L32.25 293.25L28.5 292L22.25 289L19.25 287L16 284.5L12.75 281.5L10 278.5L7.25 274.75L5 271L3 266.75L1.5 262.25L0 256.5V38L0.5 36.5L2 30.75L4.5 24.75L6.5 21.25L9.25 17.25L11.75 14.5L13.5 12.5L16.25 10L20 7.25L23.75 5L28 3L33.25 1.25L38.25 0ZM45 30L41 30.5L38 31.75L35.75 33.25L33.75 35L31.5 38.5L30.5 41.5L30.25 42.75L30 50.25V248.75L30.25 252.25L31 255.25L32.75 258.5L35.5 261.5L38.25 263.25L42 264.5L43.5 264.75L82.5 265L86 265.75L88.25 266.75L91 268.5L93.5 271.25L95.25 274.5L96 277.5L96.25 282.5V319.25L96.5 320L98.75 319.25L102.75 317.25L108 314.5L114 310.5L117.5 307.75L120 305.5L122 303.75L126 299.75L127.75 297.75L131.25 293.25L134.75 288L137.25 283.5L139.25 279.5L142.5 272.5L144.5 269.75L146.25 268L149.75 266L152.25 265.25L154 265L251.5 264.75L255.5 263.75L258.25 262.25L261 260L262.75 257.5L263.75 255.5L264.75 251.5V43.5L264 40L262.25 36.5L260.25 34L257 31.75L253.75 30.5L250.25 30H45ZM414.75 192L408.25 195L403 198L399.25 200.5L396.25 202.75L393.5 205L391 207.25L390 208V208.5L389 209L388.5 210H388V210.5H387.5L385.75 212.5L382.75 216L379.5 220.5L376.75 224.75L375 227.75L372.75 232.5L371 236.25L369 240.25L367 242.75L364 245L360.75 246.25L358.75 246.75L355.25 247L295 247.25L294.75 253L294.25 257.25L293.25 262L291.5 267L289 272.25L286.75 275.75L284.25 279L281.5 282L278.5 284.75L275 287.25L270.25 290L266.25 291.75L261.75 293.25L256.75 294.25L252.5 294.75L247.75 295L247.25 295.25V469L248 472.25L249.75 475.5L252.5 478.5L255.25 480.25L257.75 481.25L260 481.75H469L472.75 480.75L475.5 479.25L478.5 476.5L480.25 473.75L481.25 471.25L481.75 469V260L480.75 256.25L479.25 253.5L477.25 251L474.75 249.25L471.5 247.75L469.25 247.25L433 247L428.25 246.75L424.75 245.75L422.5 244.5L420 242.5L417.75 239.5L416.5 236.5L416 234.75L415.75 232.75V192H414.75Z" fill="#FE9900"/>
<path d="M144.5 72.25H150.25L153.5 73.25L156.5 75L158.5 76.75L160.5 79.5L161.75 82L162.5 85L162.75 89.75V96.25H210L213 97L217 99.25L219.5 101.75L221.5 105L222.75 109V113.75L221.75 117L220.25 119.75L218.25 122.25L216 124L213 125.5L210 126.25L208.25 126.5H192L191.75 129.75L190.5 137.75L189 144.75L187 151.75L185.25 157L182.75 163L179.75 169.25L177.5 173.25L174 178.75L171.5 182V183L176.25 185.25L183.25 187.75L189.25 189.5L196 191L203.25 192L211 192.75L214 193.75L217.5 196L219.5 198L221.5 201.25L222.75 205V210.25L221.5 214L220 216.5L217.75 219L215.25 220.75L212.5 222L209.75 222.75H203.75L196.75 222L187.75 220.5L180.25 218.75L170.5 215.75L162.5 212.5L155.25 209L150 206L147.75 204.5L146.5 205L140.5 208.5L136.25 210.75L129.5 213.75L122.75 216.25L115.5 218.5L108 220.25L101.25 221.5L93.75 222.5L91 222.75H85L81.5 221.75L78.75 220.25L76.25 218L74.5 216L72.75 212.25L72 209.5V206.25L73 202.25L74.5 199.25L76.5 196.75L79.5 194.5L82.25 193.25L85.5 192.5L94 191.75L101.5 190.5L108.5 188.75L116.75 186L123.5 183L123.25 182L119.5 176.5L116.25 171.25L112.75 164.5L109.75 157.25L107.25 149.75L105.25 142L103.75 134.25L102.75 126.75L102.5 126.5H86.25L83.5 126L80.75 125L78.25 123.5L75.75 121.25L74 118.75L72.75 116L72 113V110L73 105.75L74.5 103L76.5 100.5H77V100L79 98.5L82 97L84.5 96.25L132 96L132.25 85.5L133.25 81.75L134.75 79L136.25 77L138 75.25L141.25 73.25L144.5 72.25ZM133.25 126.5L134.5 133.75L136 140L138.5 147.5L140.5 152L142.5 156L145 160.25L146.75 162.5L147.25 163.25L148 163L151.5 157.5L153.75 153.5L156 148.5L158.25 142.25L160 135.5L161 130.25L161.5 126.5H133.25Z" fill="#FE9900"/>
<path d="M361.75 289.25H367.25L370.5 290.25L373.5 292L375.75 294L378 297.25L380 301L382.75 306.75L438.5 418.25L439.75 422V427.25L438.75 430.5L437 433.75L435 436L432.5 437.75L429.75 439L427 439.75H422.25L418.25 438.5L415.5 436.75L413.5 435L411.25 431.75L407 423.5L405 419.5L400.5 410.25L400.25 410H328.75L318 431.5L315.75 434.75L314 436.5L311.75 438L308.5 439.25L306.75 439.75H301.75L298.5 438.75L296 437.5L293.5 435.25L291.75 433.25L289.75 429.25L289 425.25L289.5 421L290.75 417.75L351.25 296.75L353.5 293.75L355.75 291.75L359.75 289.75L361.75 289.25ZM364.25 338.25L361.5 344L344 379V379.5H385L384 377L382 372.75L379.5 368L371.5 352L368.5 345.75L366.5 341.75L364.5 338.25H364.25Z" fill="#FE9900"/>
<path d="M13.25 331H16.5L20 331.75L23 333.25L25.5 335.25L27.5 337.5L29.5 341.5L30 344L30.75 356L31.75 363.75L33.25 371L35 377.5L37.5 384.5L39.75 389.75L42.5 395.5L46 401.5L49.5 406.75L51.75 409.75L54.25 413L56.5 415.5L58.25 417.5L59.5 418.75V419.25H60L61.75 421.25L64.75 424L67.25 426.25L69.75 428.25L74 431.5L79.25 435L83.5 437.5L88 440L94.5 443L101 445.5L107.5 447.5L114 449L121.25 450.25L126.25 450.75H128L125 447.75L123 445.25L121 441.5L120.25 438.5V434.5L121.25 430.75L123.25 427.25L125.5 424.75L128.75 422.75L131.25 421.75L134.5 421.25L138.25 421.5L141.5 422.5L144.5 424.25L147.75 427.25L177 456.5L179.25 460L180.25 462.75L180.75 465.5V467.75L179.75 472L177.5 476L175.75 478H175.25L174.75 479L166.75 487H166.25L165.75 488H165.25L164.75 489L147.75 506L145.75 507.75L143.5 509.5L139.75 511.25L136.5 512H134.75L131.25 511.25L128.25 510L125.5 508.25L123 505.5L121 501.5L120.25 498.5V495L121.25 491L123.25 487.5L126 484.5L128.75 481.75L116.5 480.5L109.5 479.25L101.5 477.5L94.75 475.5L88.75 473.5L80.75 470.25L73.5 466.75L69.25 464.5L63.75 461.25L57 456.75L51.75 452.75L49 450.5L45.75 447.75L42 444.25L41 443.5V443L40 442.5L38 440.5V440H37.5L35.75 438L33 435L30.25 431.75L28.25 429.25L24.75 424.5L20.25 417.75L18 414L15.5 409.5L13.25 405.25L10 398L7.25 390.75L5 383.75L3 375.75L1.75 369.5L0.25 359.25L0 359V342.5L1.75 338.75L3.25 336.5L4.5 335L7.75 332.75L10.75 331.5L13.25 331Z" fill="#FE9900"/>
<path d="M372.5 0H380.25V0.5L381.75 0.75L385.25 2.75L387.75 5L389.5 7.5L390.5 9.5L391.25 12.25L391.5 15.25L391 18.75L389.75 22L387.5 25.25L383 29.75L392.75 30.75L402 32.25L409 33.75L416 35.75L423.5 38.25L430.75 41.25L436.25 43.75L441.75 46.75L445.75 49L450.5 52L454.5 54.75L459.25 58.25L462.5 61L465.25 63.25L468.5 66.25L470.5 68L475 72.5L476.75 74.5L479.25 77.25L481.5 80L484.25 83.5L487 87.25L491 93.25L493.25 97L496.25 102.25L499.5 108.75L502.25 115.25L504.75 122L507 129.25L508.75 136.25L510.25 144.5L511.25 152L511.5 154.5L512 154.75V168.5L511.5 169L510.5 171.75L508.75 174.75L507.5 176.25L505 178.25L501.75 179.75L497.75 180.75H495.75L492.25 180L489.25 178.75L486.5 176.75L484.25 174.25L482.25 170.25L481.5 166.75L481 157L480.25 150.5L479 143.25L477 135.5L474.5 128L471.75 121.5L468.25 114.5L464.5 108.25L461 103.25L457.5 98.75L454.5 95.25L450.75 91.25L448 88.5L446 86.75L442.5 83.75L437.5 80L433 77L426.75 73.25L423 71.25L415.75 68L409.5 65.75L403.75 64L397.5 62.5L389.5 61.25L385 60.75H383.5L384 61.75L385 62.25L386.75 64.25L389 66.75L390.75 70.5L391.5 74.5L391.25 77.75L390.25 81L388.75 83.75L386.75 86.25L384 88.25L381.25 89.5L377.75 90.25H374.5L370.5 89.25L367.75 87.75L364.5 85L335.5 56L333 52.75L331.75 50L331 47.25V43.25L332 39.5L333.25 37L335.25 34.5L362.25 7.5L363.5 6L367.5 2.5L371.25 0.5L372.5 0Z" fill="#FE9900"/>
</g>
<defs>
<clipPath id="clip0_103_53">
<rect width="512" height="512" fill="white"/>
</clipPath>
</defs>
</svg>
