<svg width="640" height="384" viewBox="0 0 640 384" fill="none" xmlns="http://www.w3.org/2000/svg">
<path d="M0 64C0 28.7 28.7 0 64 0H256H304H320H576C611.3 0 640 28.7 640 64V320C640 355.3 611.3 384 576 384H320H304H256H64C28.7 384 0 355.3 0 320V64ZM320 64V320H576V64H320ZM178.3 111.9C175.1 104.7 167.9 100 160 100C152.1 100 144.9 104.7 141.7 111.9L77.7 255.9C73.2 266 77.8 277.8 87.9 282.3C98 286.8 109.8 282.2 114.3 272.1L123.2 252H196.8L205.7 272.1C210.2 282.2 222 286.7 232.1 282.3C242.2 277.9 246.7 266 242.3 255.9L178.3 111.9ZM160 169.2L179 212H141L160 169.2Z" fill="#272727"/>
<path d="M488.8 146.7C485.513 146.7 482.855 145.733 480.825 143.8C478.892 141.77 477.925 139.112 477.925 135.825C477.925 132.538 478.892 129.928 480.825 127.995C482.855 126.062 485.513 125.095 488.8 125.095C491.99 125.095 494.552 126.062 496.485 127.995C498.418 129.928 499.385 132.538 499.385 135.825C499.385 139.112 498.418 141.77 496.485 143.8C494.552 145.733 491.99 146.7 488.8 146.7ZM434.28 204.7C439.017 190.973 445.88 179.808 454.87 171.205C464.633 161.828 475.798 157.14 488.365 157.14C500.062 157.14 509.39 161.2 516.35 169.32C522.247 176.087 525.195 184.448 525.195 194.405V197.305C525.195 206.295 522.392 213.303 516.785 218.33C511.952 222.777 505.62 225 497.79 225H434.135C431.815 225 429.35 224.758 426.74 224.275C424.71 233.362 419.877 240.467 412.24 245.59C405.377 250.23 397.16 252.55 387.59 252.55C374.25 252.55 363.955 247.862 356.705 238.485C351.002 231.235 348.15 222.68 348.15 212.82C348.15 205.473 349.842 198.948 353.225 193.245L373.235 189.04C369.658 195.42 367.87 202.187 367.87 209.34C367.87 216.203 369.658 221.713 373.235 225.87C376.908 230.123 381.693 232.25 387.59 232.25C400.35 232.25 406.73 226.498 406.73 214.995V177.73L427.755 166.565V196.29C427.755 201.51 429.93 204.313 434.28 204.7ZM504.17 196.145V194.405C504.17 189.185 502.72 184.98 499.82 181.79C496.92 178.503 493.15 176.86 488.51 176.86C481.84 176.86 475.508 179.373 469.515 184.4C463.618 189.33 458.882 196.097 455.305 204.7H497.065C499.965 204.7 501.85 204.168 502.72 203.105C503.687 202.042 504.17 199.722 504.17 196.145Z" fill="#272727"/>
</svg>
