<svg width="512" height="512" viewBox="0 0 512 512" fill="none" xmlns="http://www.w3.org/2000/svg">
<g clip-path="url(#clip0_101_37)">
<path d="M297.25 0H462.25L468.25 2L472.25 4.25L475 6.5L477.25 8.75L479.75 12.25L481.5 15.75L482.75 19.75L483.25 24.25V150L482.75 154.5L482.25 156.75L490 172.25L493.5 180.25L497.25 189.75L500 197.5L503 207.25L505.75 217.75L508.25 229.75L510 240.75L511.25 251.5L511.5 254L512 254.25V291.5L511.5 292L510 305.5L508.5 315.25L506.75 324.25L504.75 332.75L502.5 340.75L499.75 349.5L496.75 358L494 364.75L490.75 372.25L487.25 379.5L484.5 385L481.25 390.75L479 394.75L475.75 400L472.75 404.75L470.75 407.75L468.25 411L465.75 412.75L464 413.25H460.5L458 412L456 409.75L455 407.25V404.5L456 401.75L457.75 399.25L461.75 393.25L465.25 387.5L469 381L471.75 376L473.75 372L477.75 363.5L480.75 356.25L484.25 347L487 338.5L489.5 329.75L491.75 320L493.5 311L495 300.5L495.75 293L496.25 286.25L496.5 281V264.75L496 256L495 245.75L493.75 237L492 227.5L489.75 217.75L487.25 208.75L485.25 202.5L482.5 194.5L479 185.75L476 179L472.5 171.75L472 170.25L467.25 172.75L462.75 174L459.75 174.5L448.5 174.75L450.5 178L452.5 182L454.75 187L457.25 194.5L459 202L459.75 207L460 210L460.25 216.5L460 222.75L459.5 227.5L458.5 233.5L457 239.75L455.5 244.5L453.5 250L451.75 253.75L449.75 257.75L447.75 261.25L445 265.5L442.25 269.25L440.5 271.5L440.75 273.5V401.75L440 406.5L438.75 410.25L436.25 414.75L434.25 417.25L431.5 420L427.25 422.75L423.75 424.25L420 425.25L416 425.75L349.75 426L347.75 427L347 427.25L347.75 429L350.25 432.75L352.75 436.25L355.75 440.25L358.75 444L362 448.25L365.5 452.5L367.75 455.25L374.25 463.25L379.25 469.75L380.75 469.25L386.75 465.75L393.25 461.75L400.75 456.75L405.25 453.5L409.25 450.5L414.25 446.5L417 444.25L419.5 442L422.25 439.75L426.5 435.75L427.5 434.75H428V434.25H428.5V433.75L430.25 432.25L430.5 431.75H431L431.5 430.75H432L432.5 429.75H433L433.5 428.75L435.75 426.75L437.5 425.75L438.5 425.5H442L444 426.25L446 427.75L447.5 430.25L448 432V434L447.25 436.25L445.25 439L437.25 447L435.25 448.75L431.75 452L429.75 453.75L426.5 456.5L423.75 458.75L419.75 462L415 465.5L410.5 468.75L400 475.75L394.5 479L390.75 481.25L384.25 484.75L378 488L371 491.25L364.75 494L355.75 497.5L344 501.5L335.25 504L327.25 506L317.75 508L307 509.75L292.5 511.5L288 512H256V511.75L245.25 510.5L236 509.25L225.75 507.5L214.75 505L207.25 503L199 500.5L191 497.75L180.75 493.75L171.75 489.75L166.5 487.25L161.75 484.75L157.5 482.5L152.25 479.5L147.75 476.75L143 473.75L138.5 470.75L134.25 467.75L129.75 464.5L125.75 461.25L122.5 458.75L119.25 456L112.25 450L108.5 446.25L106.5 444.5L99.5 437.5L97.75 435.5L95.5 433.25L93.75 431.25L91.5 428.5L89 425.75L86.25 422.25L83.25 418.5L80.25 414.5L77.75 411L74.75 406.75L72 402.5L68.5 397L65 391L62.5 386.5L59 379.75L57 375.75L53 367L50 359.5L47.25 352L44.75 344.5L42.5 336.75L39.5 324.75L37.25 313L35.75 302.5L34.75 292.75L34 280.5L22.75 280.25L17.75 279.25L13 277.25L9.75 275L7.25 272.75L5 270.25L2.75 266.75L1 262.75L0 259.5V126L0.75 124L2.25 120.25L4 117L6.75 113.5L7.5 112.75H8V112.25L11.25 109.75L14.25 108L18.25 106.5L22.25 105.75L27.5 105.5H38L42.75 105.75L45 106.75L47 108.5L48.25 110.75L48.75 112.5L48.5 115.25L47.25 117.75L45.5 119.5L43.5 120.5L42.75 120.75L38 121H27.75L23.5 121.25L21 122L18.75 123.5L17 125.5L16 127.5L15.5 129.25L15.25 132.75V254.25L15.75 258L17 260.5L19 262.75L22.5 264.5L23.75 264.75L89.75 265L94.25 265.5L97.75 266.75L101.25 268.75L128.25 288.25L131.75 290.75L140.75 297.25L145 300.25L146.75 301.5V290L147 281.75L148 277.75L149.75 274.25L151.5 271.75H152L152.5 270.75L154.75 268.75L158.25 266.75L160.75 265.75L162.75 265.25L165 265L182.25 264.75L185.5 263.75L187.75 262.25L189.25 260.5L190.5 258L190.75 256.75L191 218.5V131.25L190.5 128L189 125L188 123.75L185.25 122L183 121.25L130.25 121H76.5L73.25 120.5L70.75 119L69.25 117L68.25 114.25V112.25L69 109.75L70.5 107.75L72.75 106.25L74 105.75L79.75 105.5H99.75L102.75 105.25L105.25 102.75L107.25 101L111.5 96.75L113.5 95L114.5 94.5V94L117.25 91.75L119.75 89.5L124.75 85.5L128.25 82.75L133 79.25L137.5 76L144 71.75L148.75 68.75L156 64.5L161.5 61.5L168.75 57.75L177 54L184.5 50.75L194.75 47L203.25 44.25L210.25 42.25L220.25 39.75L230.25 37.75L241.25 36L250 35L259.75 34.25L267.5 34H276.5V28L276.75 22.25L277.5 18.5L278.75 15L280.5 11.75L282.5 9L283.5 7.75H284L284.5 6.75L287.25 4.5L291 2.25L295.75 0.5L297.25 0ZM302 15L299 15.5L296 17L294 19L292.75 21.25L292 23.5L291.75 85.75L291.25 88.75L289.75 91L288 92.5L285.75 93.25H282.75L280.5 92.5L278.75 91L277.5 89L277 87.5L276.75 84.75L276.5 49.25H268.25L257 49.75L246.25 50.75L235.75 52.25L225.25 54.25L216 56.5L207 59L197.75 62L198.25 63.25L200.75 66.25L204 71.25L206.5 75.75L209.25 81.5L211.5 87.75L213.25 94L214.5 101L214.75 103.75V113.75L214 119L213 123.25L211.25 128.25L209.25 132.25L207.75 134.75L206.5 136.75V204.75L209 206.75L212.75 209.25L217.25 211.75L221.5 213.75L228.25 216L233.25 217L237.25 217.5H245.75L250.75 216.75L256.5 215.25L261.75 213L265.5 211L269.5 208.25L272.25 206L276 202.5L278.25 199.75L281 196L283.5 191.5L285.75 186.25L287.25 181L288 177.25L288.75 172V170.5L285.75 168.25L282.5 165L280 161.25L278.25 157.5L277.25 153.5L277 152L276.75 145.5V122L277 119.25L278 117L278.5 115.75H279V115.25L280 114.75L282.25 113.75L284.75 113.5L287 114L289.5 115.5L291 117.75L291.5 119L291.75 120.5L292 150.75L292.75 153.25L294.25 155.5L295.5 156.75L296.75 157.75L298.75 158.75L301.25 159.25L318.5 159.5L321.75 160L325.5 161.5L328.25 163.25L330.75 165.5L332.75 168L334.25 170.5L335.5 174.25L335.75 175.5L336 179L336.25 195.75L337.25 195.25L341.5 192.25L346 189L349.5 186.5L381 163.75L385 161.25L388.5 160L391.5 159.5L459 159.25L462.25 158.25L464.75 156.5L466.5 154.5L467.75 151.5L468 149.75V24.5L467.5 22L466 19L464.25 17.25L460.75 15.5L457.75 15H302ZM182.25 68.25L171.25 73.5L163.75 77.5L157 81.5L151 85.25L144.75 89.5L140 93L136.75 95.5L133.25 98.25L129 101.75L125.25 105L124.75 105.75H171.25L184 106L187.75 106.75L191.75 108.25L194.5 109.75L197.25 111.75L198.25 112.25V112.75L199.75 113.75V106L199.25 101L198 95.25L195.5 87.75L193.5 83.25L191 78.75L189 75.75L186.75 72.75L184.5 70.25L182.75 68.25H182.25ZM303.75 174.5L302.25 183L300.75 189L298.75 194.5L296.5 199.25L294.5 202.75L292.5 205.75L290 209.25L288 211.5V212H287.5L285.75 214L282.75 217L280.25 219L277 221.5L272.5 224.25L268.5 226.5L262.5 229L257.75 230.5L252.5 231.75L247.5 232.5L244.5 232.75H236.5L230.5 232L224.25 230.5L216.75 228L211.75 225.75L207.5 223.5L206.5 223.25L206.25 255.5L205.75 260L204.5 264.25L202 269L200 271.5L199 272.5V273L198 273.5L196 275.25L192.25 277.5L187.5 279.25L183 280L166.25 280.25L164 281L162.5 282.75L162.25 283.5L162 304.75L161.5 308.75L160.25 311.75L158.25 314.5L155.25 316.75L152 318L149.75 318.5H147.5L143.5 317.5L140.75 316L137.25 313.5L123.75 303.75L120.25 301.25L97.75 285L94.25 282.5L91.75 280.75L90 280.25H49.5V284.5L50.25 294.75L51.25 303.5L53 314.25L55.25 324.75L58 335.25L60.5 343L62.5 349L66 358L69.25 365.5L70.5 368L71.5 367.5L74.75 365L78.75 362L82 359.75L85.75 357.25L92.5 353.5L97.25 351.5L102 350L106 349.25L108.25 349H113.5L118 349.75L122.5 351.25L126.75 353.5L129.5 355.5L132 357.75L134.75 360.5L137 363.25L138.25 364.75L140.75 366.75L144.5 368.75L149 370.25L153.75 371.25L157.5 371.75H162L166.5 370.75L171 369.25L175 367.25L178.5 365L182 362L185 358.75L187.5 355.5L189.25 354L191.5 353H194.75L197.25 354L199 355.5L200.5 358.5L200.75 360.75L200.25 363L198.75 365.5L196.25 368.75L194 371.25L193.75 372L192.75 372.5L190.5 374.75L187.25 377.25L183.5 379.75L177.75 382.75L172.25 384.75L166 386.25L162.75 386.75H156.5L150.75 386L145.25 384.75L140.25 383.25L135.75 381.25L131.75 378.75L129.25 376.75L127.75 375.5L127.5 375H127L126.5 374L124.25 371.5L122.5 369.5L120.25 367.25L117 365.25L114 364.25L112.5 364H108.75L104 365L99.25 367L95 369.25L91.5 371.5L86.75 374.75L83 377.75L79.5 380.5L77.75 382L79.25 385L83.5 392L87.25 397.75L90 401.75L93.25 406.25L95.75 409.5L98.5 413L100.75 415.75L106.75 422.75L110.75 427L112.5 429H113L113.5 430L116.5 433H117L117.25 433.75L119.25 435.5L121.5 437.75L123.5 439.5L126 441.75L128.75 444L132.25 447L136.5 450.25L140 453L144.5 456.25L152.75 461.75L158.75 465.5L165 469L170.5 472L178 475.75L185.25 479L194 482.5L201 485L209.5 487.75L220.75 490.75L228.75 492.5L238.5 494.25L248 495.5L256.25 496.25L265.25 496.75H282L293.5 496L304.5 494.75L315.25 493L325.75 490.75L332.5 489L342.5 486L350.5 483.25L359.5 479.75L365 477.25V476.25L359.5 469.25L356.75 466L354 462.5L351.25 459.25L349.25 456.75L346.5 453.25L343 448.75L339.5 444L334.75 437H333.75L329 440.25L325.75 442.75L320.75 446.25L316.75 449.25L313.5 451.5L308.75 455L304 458.25L300.75 460.75L297.25 462.75L294.75 463.5L293 463.75H290.75L287.25 463L284.25 461.5L281.75 459.25L280 456.5L279 454L278.5 451.75L278.25 428.75L277.5 427.25L276 426L275.5 425.75L258.5 425.5L254.5 425L250.25 423.75L245.5 421.25L243 419.25L241.5 418L239.25 415.25L237.25 412L235.75 408.75L234.75 405.25L234.25 400.25L234 297L233 297.25L229.5 299.75L225.75 303.5L223.25 306.75L221 310.5L219 314.75L216 324L214 330L212.5 332.5L211 333.75L208.5 334.75H204.75L202.25 333.5L200.75 331.75L199.75 329.5L199.5 327L200.75 322.25L203.5 313.5L205.5 308L208 302.75L211 298L213.75 294.5L216.75 291L219.75 288.25L223 285.75L226.75 283.25L230.75 281.25L234 279.75L234.5 272.75L235.75 268L237.5 264L239.75 260.75L242.5 257.75L246 255L250 253L254 251.75L257.75 251.25L343.75 251L344 250.5L344.75 245L346 240.25L347.5 236.5L349.25 233L351.5 229.75L353.5 227.25L354.5 226.25V225.75H355L356.75 223.75L360 220.25L361.5 218.25V217.75H362L364.5 214L366.75 210.25L369.25 205L371.25 199L372.5 193.25L373 190.25V188.5L371.75 189L358.25 198.75L354.5 201.5L347.5 206.5L343 209.75L339 211.75L336.5 212.5H332.5L329.75 211.75L326.75 210.25L324.25 208L322.5 205.25L321.5 202.75L321.25 201.75L321 192.75V179.5L320.75 177.25L319.75 175.75L318.5 174.75L317.75 174.5H303.75ZM392.75 174.5L390.75 175.25L389.5 176.25L389 179.75L388.25 189L387.25 196.25L386 202.25L384.5 207.25L383 211.25L380 217.5L377 222.5L374.5 226L372.25 229L370 231.5L368.25 233.5L367.25 234.5V235H366.75L365 237L363 239.5L361.5 242L360 245.5L359 250.75V251L416 251.25L419.5 251.5L423.5 252.5L428.75 255L431.75 257.25L433 256L436 251L438 247L440 242.5L442.25 235.75L443.75 229.25L444.75 221.5V211L443.75 203.75L442.25 197.75L440.25 192L437.75 186.5L435 181.75L432.25 177.75L430 175L429.5 174.5H392.75ZM258.5 266.25L255.5 267L253.25 268.5L252 269.5L250 272.75L249.5 274.5L249.25 386.75V399L249.5 402.25L250.5 405L252.25 407.5L254.75 409.25L257.5 410.25L259.75 410.5L276.75 410.75L280.75 411.75L284.75 413.75L287 415.5L289.25 417.75L291 420.5L292.25 423L293.25 426.75L293.5 429.25V446.75L294.75 446.5L299.25 443.25L304 439.75L307.5 437.25L325.5 424.25L329.75 421.25L334.5 417.75L338.75 414.75L341.5 413L344.75 411.5L348.5 410.75L415.5 410.5L418.25 410L421.25 408.5L423 407L424.5 404.75L425.25 402.5L425.5 400.25V276.25L425 273.25L423.5 270.25L421.5 268.25L418.75 266.75L416 266.25H258.5Z" fill="#FE9900"/>
<path d="M378 29.5H381.75L384.25 30.5L386.25 32.5L387.25 34.5L387.5 35.25L387.75 45.75L387.5 49.5H426L429 50L431 51.25L432.25 52.5L433.5 54.5L434 56.5V58.25L433 61L432 62.5H431.5V63L429.75 64L427.75 64.75L411 65L408.5 73.75L406.75 78.75L404.75 83.75L401.75 90.25L399 95.25L397 98.5L394.5 102.25L392 105.75L390.5 107.75L393.25 110.5L395.75 112.5L399.25 115.25L402.5 117.5L406.5 120L410 122L414.75 124.5L425 129L428.25 130.75L430 132.5L431.25 135L431.5 137.75L430.75 140L429.25 142.25L428 143.25L425.75 144.25L424.75 144.5H422.5L419.25 143.5L406.25 137.5L400.5 134.5L394.5 130.75L390.25 127.75L387 125.25L383.75 122.5L381.25 120.25L380.75 120V119.5L379.5 119.75L377.5 121.5L374 124.5L369.5 128L364.25 131.5L359.25 134.5L353.25 137.75L344 142L339.25 144L336.75 144.75L334.5 144.5L332 143.5L330.75 142.5L329.25 140.25L328.5 138V136L329.25 133.5L330.75 131.5L332 130.5L336 128.5L343.25 125.25L350 122L354.25 119.5L360.25 115.5L363.5 113L367 110L369 108.25L369.25 107.5L366 103L362.5 97.75L359 91.75L355.75 85.25L353 78.5L350.75 71.75L349 65.25V64.75H332L329.5 63.75L328 62.5L326.5 60L326 58.5V56L327 53.25L328.75 51.25L330.75 50L333.5 49.5H372.25V36L373.25 33.25L374.75 31.25L377.25 29.75L378 29.5ZM364.75 64.75L365.5 67.75L368 75L371.25 82.25L373.5 86.5L377 92.25L379.75 96L380.5 95.75L383.5 91.25L386.25 86.75L389.25 81L392 74.75L394.75 66.75L395 64.75H364.75Z" fill="#FE9900"/>
<path d="M102.25 140.25L105.25 140.5L107.75 141.5L109.75 143L111.5 145.25L113.5 150L116.75 158.75L122 172.5L126.75 185L132 198.75L136.75 211.25L142 225L145.5 234.25L146.25 236.75V239.5L145.25 242L143.5 244L141 245.25L138.5 245.75L135.5 245L134 244L132.25 242.25L130.75 239L128.25 232.5L125.25 224.5L125 223.5L81.25 223.75L77.5 233.75L75 240.5L73.25 243.25L71.25 244.75L69 245.5H66L63.5 244.5L61.75 243L60.5 241L60 239.5V236.75L61.75 231.5L65 223L69 212.25L73 201.75L76.75 191.75L80 183.25L83.75 173.25L88 162L91.75 152L94.25 145.75L95.75 143.5L97.75 141.75L99.75 140.75L102.25 140.25ZM103 166L102 168.25L98.25 178.25L94 189.25L92.5 193.25L89.75 200.75L87 207.75V208.25H119L118.75 206.75L115 197L110 183.75L106.75 175.25L103.25 166H103Z" fill="#FE9900"/>
<path d="M369 306C366.733 306 364.9 305.333 363.5 304C362.167 302.6 361.5 300.767 361.5 298.5C361.5 296.233 362.167 294.433 363.5 293.1C364.9 291.767 366.733 291.1 369 291.1C371.2 291.1 372.967 291.767 374.3 293.1C375.633 294.433 376.3 296.233 376.3 298.5C376.3 300.767 375.633 302.6 374.3 304C372.967 305.333 371.2 306 369 306ZM331.4 346C334.667 336.533 339.4 328.833 345.6 322.9C352.333 316.433 360.033 313.2 368.7 313.2C376.767 313.2 383.2 316 388 321.6C392.067 326.267 394.1 332.033 394.1 338.9V340.9C394.1 347.1 392.167 351.933 388.3 355.4C384.967 358.467 380.6 360 375.2 360H331.3C329.7 360 328 359.833 326.2 359.5C324.8 365.767 321.467 370.667 316.2 374.2C311.467 377.4 305.8 379 299.2 379C290 379 282.9 375.767 277.9 369.3C273.967 364.3 272 358.4 272 351.6C272 346.533 273.167 342.033 275.5 338.1L289.3 335.2C286.833 339.6 285.6 344.267 285.6 349.2C285.6 353.933 286.833 357.733 289.3 360.6C291.833 363.533 295.133 365 299.2 365C308 365 312.4 361.033 312.4 353.1V327.4L326.9 319.7V340.2C326.9 343.8 328.4 345.733 331.4 346ZM379.6 340.1V338.9C379.6 335.3 378.6 332.4 376.6 330.2C374.6 327.933 372 326.8 368.8 326.8C364.2 326.8 359.833 328.533 355.7 332C351.633 335.4 348.367 340.067 345.9 346H374.7C376.7 346 378 345.633 378.6 344.9C379.267 344.167 379.6 342.567 379.6 340.1Z" fill="#FE9900"/>
</g>
<defs>
<clipPath id="clip0_101_37">
<rect width="512" height="512" fill="white"/>
</clipPath>
</defs>
</svg>
