<svg width="512" height="512" viewBox="0 0 512 512" fill="none" xmlns="http://www.w3.org/2000/svg">
<path d="M242.25 84.25H260L273 85.25L280.25 86.25L282.25 87.25L284 88.75L285.5 91.75V95.25L284.25 97.75L283 99.25L280 100.75H274.75L270.75 100.25L271.75 106.25L273 110.25L275.5 116.25L277.5 121L279 125.25L280 130L280.25 132.25V140L279.5 145.25L278.25 150L276.5 154.5L274.25 158.75L273 161L270.5 164.25L268.25 167H267.75L267.25 168L264.75 170.25L261 173L257.5 175L254.5 176.5L249.5 178.25L243.5 180L232.5 182.5L225 184.5L217 187.25L210 190.25L206 192.25L200.5 195.25L196.25 198L192.75 200.5L189.25 203.5L186.25 206.5L183.25 210.5L181.25 214.25L180.25 217L179.75 220.75L179.5 230.5L178.75 234.5L177.5 237.75L175.25 241.25L173.5 243L170.5 245L166.5 246.5L161.75 247.25H159L155.25 246.75L151.5 245.75L146.25 243.5L140 240.5L137.25 239.5L134.75 239H132.75L129 239.75L126 241L122.5 243L119.75 245.25L117.25 247.5L116 249L115.5 249.75L115.75 251.5L118 254.25L121 257.5L123.5 260.75L125.5 264.5L126.5 268.75V271.25L125.75 274.75L124.75 277L123.25 279.5L122 281L118.5 283.75L114.5 285.75L110.75 287L106 288L102 288.5L98.25 288.75H90L84.25 288.25L76.75 287L70.5 285.5L63.75 283.25L61.25 282.25V300.25L62.25 312.25L63.75 322.75L65.25 330.5L67.25 339L70 348.25L73 357L76 364.5L78.25 369.5L80.25 374L82.75 378.75L86.25 385.25L88.5 389L91.5 393.75L95 399L98.25 403.5L101.25 407.5L104.5 411.5L107.25 414.75L109.5 417.25L111.25 419.25L114.25 422.5L122.25 430.5L124.25 432.25L127.75 435.25L130.25 437.5L133.5 440L137 442.75L140.75 445.5L145.5 448.75L149.25 451.25L154.5 454.5L160.75 458L166.5 461L173.75 464.5L179.5 467L187.25 470L198 473.5L205.25 475.5L214.25 477.5L224.5 479.25L232.75 480.25L242.25 481L252.75 481.25L261.5 481L273.5 480L284 478.5L294 476.5L303.75 474L313.5 471L322.25 467.75L331 464L331.75 463.75L331.25 462.25L330 459.75L328.75 456L327.75 451.75L327.5 449.75V446.75L328.25 442L329.75 436.75L331.75 431.75L333.5 428L335.5 424L338 419.25L341.5 413.25L344.25 408.75L348 402.75L351.75 397L355 391.5L355.75 390.25H350.5L345.75 389.5L341.25 388L336.5 385.5L333.5 383.25L330.5 380.5L328.75 378.75L326 375.25L324 372L322 368.25L320.25 363.75L318.75 358L318.25 354.75V346.5L319 342.5L320.5 338.75L322.25 336L324.75 333.25L325 332.75H325.5V332.25H326V331.75H326.5L327 330.75L328.75 329L330.5 326.5L332 323.5L333.5 319L334 316L334.25 310.75L333.75 305.5L332.5 300.25L330.5 295.25L328 290.5L325 286L322.25 282.5L320.5 280.5V280H320L318.25 278L313 272.75L311 271L304 265L301.75 263.25L298.5 260.5L295 257.75L291.5 254.75L288.25 252L281.75 246L276.75 241L275 239L272.25 235.75L269 231.25L266.25 226.5L264.25 222.25L262.75 217.75L262 214L261.75 212V205.75L262.5 201L264 195.75L267 189.5L268.75 186.75L271 183.75L274 180.25L277.5 177L282 173.75L285.75 171.5L291.5 168.75L295.5 167.5H298L300.5 168.5L302 169.5L303.5 171.75L304 173L304.25 176L303.5 178.25L302.5 179.75L301.25 181L297.75 182.75L293.25 184.75L289.5 187L287 189L284.5 191.25L282.25 194L280 197.5L278.25 201.25L277.25 204.75L277 206.5V211.75L277.75 215L279.25 218.75L281.5 222.75L284 226.25L286.75 229.5L289 232L289.5 233H290L291.5 234.75L293.5 236.5L295.5 238.5L297.5 240.25L301 243.25L304.25 246L306.75 248L310.75 251.25L315 254.75L318.5 257.75L321.25 260L323.25 262L325.25 263.75L330.5 269L332.25 271L335 274.25L338 278.25L341.25 283.25L343 286.25L345.5 291.5L347.25 296.5L348.75 302.75L349.5 309.5V314L348.75 320.25L347.5 325.5L345.5 330.5L343.25 334.75L340.75 338.25L337.75 341.5L337 342.5H336.5V343H336V343.5L334.75 344.75L333.75 346.75L333.5 348V353L334.25 357.25L335.5 361L337.5 365L339.5 368L342.25 371L345.5 373.25L348.25 374.5L351.5 375.25L358.75 375.5L362.25 376.25L365.25 377.75L367.75 380L369.5 382.25L370.75 385.5L371.5 389V391.75L370.5 395L367.5 400.5L365.75 403.25L359.5 413.25L356.25 418.5L353 424L350.25 428.75L348.25 432.75L345.5 438.5L343.5 443.75L343 446V450L344.25 454.25L345.25 456.5L346.5 456.25L353.5 452L358.25 449L363.25 445.5L367.75 442.25L374 437.25L377.25 434.5L380.75 431.5L382.5 429.75L384.5 428L392.75 419.75L394.5 417.75L396.75 415.25L399 412.5L401.75 409.25L404.5 405.75L408 401L414 392L417.75 385.75L421.5 379L425.5 371L428.75 363.5L432 355L435 346L437 339L438.5 333L440.5 323L441.75 314.25L442.5 307.25L443 299.75V280.75L442.25 271L441 261L439.25 251.5L437.25 242.75L434.75 234L432 225.5L431.75 224.25V222L432.5 219.75L434.25 217.5L436.25 216.25L438 215.75H440.25L443 216.75L445 218.5L446.75 222L449.5 230.5L451.5 237.5L454 248L455.75 257.75L457 266.75L457.75 274.5L458.25 284.75V296.25L457.75 306.75L456.75 316.25L455.5 324.75L453.75 334L451.75 342.5L449 352L446 361L442.75 369.25L439.5 376.75L437.5 381L435 385.75L432 391.5L427.75 398.5L425.75 401.75L421.75 407.75L418.5 412.25L416.25 415.25L413.5 418.75L410.25 422.75L407 426.5L404 429.75L401.75 432.25L392.75 441.25L390.75 443L387.25 446L385 448L381.5 450.75L378.75 453L373.75 456.75L369.5 459.75L365 462.75L360.25 465.75L354.75 469L349.25 472L343.5 475L336.75 478.25L329.25 481.5L322 484.25L313 487.25L304 489.75L295.75 491.75L285 493.75L276 495L264.75 496L260.5 496.25H244L232.5 495.5L222.5 494.25L213.5 492.75L206.5 491.25L199.25 489.5L190.5 487L180.25 483.5L172.75 480.5L167.75 478.25L161.25 475.25L153 471L147 467.5L140.5 463.5L134.25 459.25L129.75 456L126.5 453.5L123 450.75L118.75 447.25L115.5 444.25L113.5 442.5L111 440.25L106.75 436.25L104 433.5L102.25 431.5L100.25 429.5L98.5 427.5L96 424.75L93.75 422L90.25 417.75L87.25 413.75L83.75 409L81 405L77.75 400L74.5 394.75L71.25 389L68.25 383.25L66 379L62 370L58.5 361L55 350.75L52.5 341.75L50 331L48.25 320.75L47 310.75L46.25 301.25L46 294.25V286.75L46.25 279.75L47 270L48.5 258.25L50.5 247.25L52.25 239.5L55 229.5L58 220.5L61.25 212L64.25 205L67.5 198L70 193.25L73.5 186.75L79.5 177L81.25 174.5L83.25 171.5L86.75 166.75L90 162.5L93.25 158.5L94.5 156.75H95L95.5 155.75L97.75 153.25L98 152.75H98.5L99 151.75L102 148.5L105.25 145.25L105.5 144.75H106L106.5 143.75H107L107.5 142.75L109.5 141L112 138.5H112.5V138L114.5 136.25L121.5 130.25L128.25 125L132.75 121.75L137.5 118.5L143.25 114.75L148.75 111.5L155 108L161.75 104.5L170 100.75L178 97.5L187.25 94.25L195.5 91.75L206.5 89L215.25 87.25L225 85.75L234.25 84.75L242.25 84.25ZM244.25 99L232.75 99.75L222.75 101L213 102.75L205.25 104.5L196.25 107L187.25 110L180.75 112.5L174.25 115.25L169.25 117.5L165.25 119.5L159.5 122.5L153.5 126L148.25 129.25L143.75 132.25L139.25 135.5L136.25 137.75L131.75 141.25L128.25 144.25L125.5 146.5L123.5 148.5L121.5 150.25L118.25 153.25L116 155.5V156L115 156.5L113.25 158.5L110.75 161L109 163V163.5H108.5L106.25 166.25L103.5 169.5L100.75 173L98.5 176L95.25 180.5L91.75 185.75L88 191.75L84.75 197.5L81.25 204.25L78 211L75 218L71.75 226.75L69 235.25L66.75 243.75L64.75 252.75L63.75 258.25L62.75 264.5V266.25L64 267L68 268.75L73.5 270.75L79.25 272.25L85.25 273.25L90.25 273.75H99.75L104.75 273.25L108.75 272L111.25 270.75L111.75 269.5L110 267.25L107.5 264.5L105.75 262.5L103.5 259.5L101.75 256L101 253.75L100.75 252V248.75L101.75 244.75L103.75 240.75L105.75 238.25L108 235.75L113.5 231.25L117.5 228.75L121.5 226.75L124.75 225.5L128.75 224.5L130.5 224.25H137.25L141.25 225L146.75 227L150.25 228.75L156.75 231.5L160 232.25H162.25L164 231.5L164.75 230L165.25 217.5L166.25 212.5L168 207.75L170.5 203L172.5 200L175.25 196.5L177 194.75V194.25H177.5V193.75H178V193.25L179 192.75L182 190L186.25 186.75L192 183L197.25 180L202.5 177.25L209.75 174L217.25 171.25L224.75 169L243 164.75L248.75 162.75L253 160.5L256.5 157.75L258.5 155.75L261.25 152L263.25 148L264.75 144L265.75 138V134.75L265.25 130.75L264 126.75L261.25 120.25L258.75 114L257.25 108.25L256.5 103.25L256 99H244.25Z" fill="#FE9900"/>
<path d="M376.5 15.75H388.5L395.5 16.5L402 17.75L409 19.75L414.5 21.75L420 24.25L425.75 27.5L431 31L434 33.25L436.75 35.5L440 38.5L441 39.25V39.75H441.5V40.25H442L443.75 42.25L446.5 45.25L449.75 49.5L452.75 53.75L455 57.5L458.5 64.25L461 70.5L463 76.75L464.25 82.25L465.25 88.5L465.75 93.5V105L464.75 116L463 126.25L461 134.75L458 144.75L454.75 153.5L452 160L449 166.5L447 170.75L444 176.25L440.5 182.5L437.5 187.5L434.75 191.75L430.25 198.5L428 201.75L425.5 205.25L422.5 209.25L419.75 212.75L417.25 216L415.25 218.5L412.25 222L410 224.75L407.5 227.5L405.75 229.5L403 232.5L401.25 234.5L399.25 236.5L397.5 238.5L391.75 244.25L389.75 246L387.25 248.25L384.75 249.5L383.75 249.75H381.5L378.5 248.25L376 246L372.75 243L367.5 237.75L365.75 235.75L362.75 232.75L361 230.75L357.5 227L355.25 224.25L353 221.75L350.25 218.25L347.5 215L344.5 211L341.25 206.75L338 202.25L334 196.5L330.75 191.5L327.5 186.25L324.5 181.25L320.75 174.5L315.5 164L311.5 154.75L308 145.25L305.25 136.5L302.75 126.25L301.25 118L300.25 109.75L299.75 99.75L300 92.25L301 84.25L302.5 77.5L304.5 71L307.25 64.25L309.25 60.25L311.25 56.5L314 52.25L316.5 48.75L319.75 44.75L322 42.25L323.25 40.75L324.75 39.5L328.5 35.75L332 33L335.25 30.5L340.75 27L346.75 23.75L352.5 21.25L358 19.25L364.75 17.5L371.75 16.25L376.5 15.75ZM378.75 30.5L373.5 31L368 32L362.25 33.5L357.5 35.25L351.5 38L346.75 40.75L342.75 43.5L338.75 46.75L336.25 49L332 53.25L329.75 56L326.75 60L324.5 63.5L322.25 67.5L320 72.25L318 77.75L316 85.25L315 92.25V105.5L316 115.25L317.5 123.75L319.75 132.75L322.75 142.25L325.75 150L329.5 158.5L331.5 162.75L334 167.5L336.25 171.75L339.75 177.75L343.5 183.75L347.5 189.75L350.5 194L354.5 199.5L357 202.75L360.5 207.25L362.75 210L365.75 213.5L368 216.25L371.25 219.75L373 221.75L376 225L377.5 226.75H378L378.5 227.75L380.5 229.75H381L381.5 230.75H382L382.5 231.75L383.5 231.5L387.5 227.5L388.75 226L392.5 222.25V221.75H393L394.75 219.75L397 217.25V216.75H397.5L399.75 214L402 211.5L404.75 208L408 204L410.5 200.75L412.5 198L415.75 193.5L418 190.25L422 184.25L425 179.5L427.25 175.75L430.25 170.5L434 163.5L437.75 155.75L441 148L443.75 140.5L446 133.25L447.75 126.75L449.5 117.75L450.5 110L451 103V95L450.25 87.75L449 81.75L447.5 76.75L445.5 71.5L443 66.25L440.5 62L437.75 58L435 54.5L431 50.25L428.75 48L426 45.75L423.5 43.75L419 40.75L413.75 37.75L409.5 35.75L404.25 33.75L396.75 31.75L390 30.75L386.5 30.5H378.75Z" fill="#FE9900"/>
<path d="M190.5 271.5L195 271.75L199 272.75L204.25 275.5L208.5 278.25L212.25 280.5L215.25 281.25L222 282L225.25 283L228 284.5L230.5 286.5L233.5 289.5L236.75 294L240.25 300L242.25 303.5L244.75 307L247 309.25L251 311.25L257 313L265 315.25L272.75 318L280.25 321.25L287 324.75L291.25 327.25L296.5 330.75L300.5 333.75L304 336.75L306 338.75L308.75 342.25L311 345.75L313 350.25L314 353.75L314.5 357.25V361L313.75 366L312.5 369.75L310.5 374L308 377.5L305.5 380.25L302.25 382.75L297 385.75L291.75 388.5L289.5 390.25L289 391.25L289.25 393.5L290.75 397.25L293.25 402L294.75 405.25L296 409L296.75 412.5V416L295.75 420L294 423L292.75 424.25L291 425.75L288.5 427L277.25 430.75L272.25 433L268.75 434.75L263 438.25L259.75 440.75L255.75 444L252.75 446.75L249.5 450L247.25 452.75L245.25 455.25L242.75 458.75L240.5 462.5L238.25 466.5L236.75 469.75L235.25 472.25L233.25 474L231 475L230 475.25H226.5L222.5 474L218 471.5L214.75 469L211.25 466L208 462.75L205.75 460L203.75 457.5L201.5 455L199.75 453.25L197.75 451.5L195.25 449L192.5 445.5L190 441L188.5 436.5L187.25 430.25L187 427.75V417.75L187.25 411.75V400.75L186.75 397.5L186 394.75L185 392.25L183 389.5L180.25 387L175.75 383.75L171 380.5L166.5 377.25L162.5 374.5L158.25 371.5L154.75 369L151.5 366.5L147.5 363.25L142.25 358L139.75 354.5L137.75 351L136.25 347.5L135 342.75L134.75 341V334.75L135.5 331L137 327.25L138.5 324.75L140.75 322L144 318.75L146 317L148.5 314.75L150.25 312.75L150 310L148.25 304.25L147.5 300.5V297.25L148.5 293.25L150 290.25L152.25 287.5L154.5 285.5L158 283.25L163.5 280.5L170.25 277.5L177.75 274.25L182.25 272.75L187.25 271.75L190.5 271.5ZM189.25 286.5L184.5 287.75L179.5 289.75L170.25 294L165 296.5L162.75 298.25V300L164.75 307L165.25 309.5V314.5L164.5 317.5L162.5 321.5L160.25 324.25L157.5 327L154.75 329.25L152 331.75L150.5 334L149.75 336.25V340L150.75 343.25L152.25 346.25L155 349.75L157 351.75L160.5 354.5L163.75 357L168.75 360.5L173 363.5L183 370.5L186.5 373L189.5 375.25L192.75 378L194.75 380L197.5 383.75L199.5 387.75L200.75 391.25L201.75 395.5L202.25 399L202.5 402.25V408L202 419.75V426L202.75 431.5L203.5 434L205.25 437.5L208.25 440.75L209.5 442H210V442.5L212 444.25L214.75 447L217.5 450.5L219.75 453.25L222 455.5L224.75 457.75L225.75 458.25L227.25 456L229.25 452.5L231.75 448.75L234.75 444.75L238 440.75L241.5 437L244.5 434L246.5 432.25L249.25 430L253.5 426.75L257.25 424.25L261 422L267.75 418.5L272.5 416.5L280 414L281.75 413.5L281.25 411.25L279.5 407.25L277 402.5L275.5 399L274.5 395.75L274.25 394.25V389.5L275.25 385.5L277.25 381.75L280.25 378.5L283.25 376.25L289 373.25L293.5 370.75L296 368.75L297.75 366.25L299 363.5L299.5 361.25V356.75L298.5 353.75L297 351L294 347.5L291 345L286.5 341.75L282 339L277.5 336.5L271.5 333.5L264.5 330.75L258.5 328.75L247.5 325.75L242.5 323.75L239.5 322L236 319.25L234.25 317.5L231.75 314.25L229 310L225.25 303.5L223.25 300.5L221 297.75L219.75 296.75L219.25 296.5L214.5 296.25L209.25 295.25L205.5 293.75L201.5 291.5L196.25 288L193.75 286.75L192.5 286.5H189.25Z" fill="#FE9900"/>
<path d="M384.25 63H388.5L393.5 63.5L399 64.75L404.25 66.75L409 69.25L412 71.25L415.5 74L420 78.5L423 82.5L425 85.75L427 89.75L428.5 93.5L429.75 98.25L430.5 103.25V111.75L429.5 117.5L428 122.5L426 127L424 130.75L421.5 134.25L418.75 137.5L415.25 141L411.25 144L407.5 146.25L402.75 148.5L397.25 150.25L392 151.25L390.5 151.5H381.75L376.25 150.5L372 149.25L367 147.25L362.5 144.75L358.5 141.75L355.75 139.25L352.25 135.75L349 131.25L346.75 127.25L345 123.5L343.5 119L342.5 114.5L342 110.25V104L343 97.5L344.5 92.5L346.75 87.25L349.25 83L351.5 79.75H352L352.5 78.75L355.25 75.75L357 74L360.5 71.25L364 69L368.75 66.5L373.5 64.75L379.25 63.5L384.25 63ZM382.75 78L377.75 79L374 80.5L370.75 82.25L368 84.25L365.5 86.5L363 89.25L361.25 91.75L359.25 95.5L357.75 100L357 103.75V111.25L358.25 116.5L359.75 120.25L361.75 123.75L364.5 127.25L367 129.75L370.5 132.25L375.25 134.75L380.25 136.25L384 136.75H388.5L393.25 136L397.75 134.5L402.5 132L406 129.25L409 126.25L411.5 122.75L413.5 118.75L414.75 115.25L415.5 111.5L415.75 109.25V105.75L415 100.5L413.5 96L411.5 92L409.25 88.75L406.25 85.5L403.75 83.5L400.5 81.5L397.5 80L393.75 78.75L389.75 78H382.75Z" fill="#FE9900"/>
</svg>
